<?xml version="1.0" encoding="iso-8859-1"?>
<!-- Uploaded to: SVG Repo, www.svgrepo.com, Generator: SVG Repo Mixer Tools -->
<svg height="800px" width="800px" version="1.1" id="Layer_1" xmlns="http://www.w3.org/2000/svg" xmlns:xlink="http://www.w3.org/1999/xlink" 
	 viewBox="0 0 512 512" xml:space="preserve">
<path style="fill:#FFA54B;" d="M470.723,189.937h16.516c0,0-49.561-181.577-231.233-181.578
	C74.334,8.36,24.774,189.937,24.774,189.937h16.516c0,0-41.277,78.45-41.277,99.094h16.516h478.956H512
	C512,268.387,470.723,189.937,470.723,189.937z"/>
<path style="fill:#FFEBD2;" d="M412.893,454.186h41.289l-8.258-33.031h41.289v-74.321l24.774,8.258
	c0-20.19-10.172-48.387-17.482-66.06H379.874c0,0-74.321,0-74.321-90.837V90.843c0-27.365-22.183-49.547-49.547-49.547
	s-49.547,22.183-49.547,49.547v107.352c0,90.837-74.321,90.837-74.321,90.837H16.528c0,0-16.528,34.58-16.528,66.063l24.774-8.258
	v74.321h41.289l-8.258,33.031h41.289l-8.258,24.774c0,0,54.708,24.774,165.157,24.774c110.449-0.002,165.157-24.776,165.157-24.776
	L412.893,454.186z"/>
<circle style="fill:#D7A091;" cx="256.004" cy="421.161" r="33.031"/>
<path style="fill:#EBB4A0;" d="M256.019,330.321c-0.004,0-0.008,0-0.008,0s-0.012,0-0.017,0c-31.932,0-61.459,13.244-57.817,49.547
	c8.283,82.579,41.314,57.805,57.817,57.805c0.004,0,0.008,0,0.008,0s0.012,0,0.017,0c16.503,0,49.535,24.774,57.817-57.805
	C317.478,343.564,287.951,330.321,256.019,330.321z"/>
<path style="fill:#FF8C46;" d="M159.158,69.893c-1.799-16.181-8.804-31.984-21.31-44.291C105.939-5.8,66.714,10.028,44.005,36.866
	C17.492,68.2,3.718,101.683,32.741,130.708c23.447,23.447,82.4,36.206,110.37,21.768c0,0,8.258-49.547-16.516-90.837L159.158,69.893
	z"/>
<g>
	<path style="fill:#D7A091;" d="M231.233,379.868c-2.113,0-4.226-0.806-5.838-2.42l-8.258-8.258c-3.226-3.226-3.226-8.452,0-11.678
		c3.226-3.226,8.451-3.226,11.677,0l8.258,8.258c3.226,3.226,3.226,8.452,0,11.678C235.459,379.061,233.346,379.868,231.233,379.868
		z"/>
	<path style="fill:#D7A091;" d="M280.78,379.868c2.113,0,4.226-0.806,5.838-2.42l8.258-8.258c3.226-3.226,3.226-8.452,0-11.678
		c-3.226-3.226-8.451-3.226-11.677,0l-8.258,8.258c-3.226,3.226-3.226,8.452,0,11.678
		C276.554,379.061,278.667,379.868,280.78,379.868z"/>
</g>
<g>
	<ellipse style="fill:#464655;" cx="161.039" cy="222.973" rx="20.645" ry="33.031"/>
	<ellipse style="fill:#464655;" cx="350.97" cy="222.973" rx="20.645" ry="33.031"/>
</g>
<path style="fill:#FF8C46;" d="M352.854,69.893c1.799-16.181,8.804-31.984,21.31-44.291c31.908-31.403,71.133-15.574,93.842,11.264
	c26.514,31.334,40.287,64.818,11.264,93.842c-23.447,23.447-82.4,36.206-110.371,21.768c0,0-8.258-49.547,16.516-90.837
	L352.854,69.893z"/>
</svg>