<?xml version="1.0" encoding="iso-8859-1"?>
<!-- Uploaded to: SVG Repo, www.svgrepo.com, Generator: SVG Repo Mixer Tools -->
<svg height="800px" width="800px" version="1.1" id="Capa_1" xmlns="http://www.w3.org/2000/svg" xmlns:xlink="http://www.w3.org/1999/xlink" 
	 viewBox="0 0 141.004 141.004" xml:space="preserve">
<g>
	<g>
		<g>
			<g>
				<path style="fill:#AD8366;" d="M91.254,26.044c0,0,15.344-17.467,33.158-17.885c6.523-0.153,15.492,34.146,15.492,44.058
					c0,9.911-13.809,21.491-13.809,21.491L91.254,26.044z"/>
				<path style="fill:#5F5745;" d="M99.317,29.497c0,0,11.105-15.86,23.999-16.233c4.721-0.137,11.212,30.758,11.212,39.612
					s-9.994,19.196-9.994,19.196L99.317,29.497z"/>
			</g>
			<g>
				<path style="fill:#AD8366;" d="M49.751,26.044c0,0-15.345-17.467-33.159-17.885C10.069,8.006,1.1,42.305,1.1,52.217
					c0,9.911,13.81,21.491,13.81,21.491L49.751,26.044z"/>
				<path style="fill:#5F5745;" d="M41.688,29.497c0,0-11.106-15.86-23.999-16.233C12.967,13.127,6.476,44.022,6.476,52.875
					s9.994,19.196,9.994,19.196L41.688,29.497z"/>
			</g>
		</g>
		<path style="fill:#8D6548;" d="M122.86,77.079c7.258,0.415,13.709,3.318,13.709,3.318s-6.049-21.569-18.547-41.064
			C105.524,19.838,86.63,17.396,70.502,17.396c-16.127,0-35.021,2.443-47.52,21.938C10.483,58.828,4.436,80.397,4.436,80.397
			s6.451-2.903,13.708-3.318c0,0-15.32,12.858-18.143,30.694c0,0,22.981-4.978,38.705,6.222
			c15.725,11.199,19.644,16.944,31.796,10.754c12.151,6.19,16.071,0.445,31.796-10.754c15.725-11.199,38.706-6.222,38.706-6.222
			C138.182,89.938,122.86,77.079,122.86,77.079z"/>
		<path style="fill:#AD9180;" d="M109.631,108.217c0,11.508-24.387,24.629-39.129,24.629s-39.128-13.121-39.128-24.629
			S48.893,87.38,70.502,87.38C92.112,87.38,109.631,96.709,109.631,108.217z"/>
		<path style="fill:#AD8366;" d="M30.734,64.909c0,0,2.571-7.378,13.225-5.03c10.654,2.348,15.95,16.769,16.134,20.458
			c0.067,1.351-1.228,1.493-3.615,5.518c-2.388,4.024,1.016,12.783,1.016,12.783c1.47,6.708-7.621,10.444-11.846,7.594
			c-4.225-2.851-10.923-8.813-18.27-4.452c-2.442,1.448-3.596,3.642-4.054,5.923c5.234,1.015,10.638,2.914,15.382,6.293
			c15.725,11.199,19.644,16.944,31.796,10.754c12.151,6.19,16.071,0.445,31.796-10.754c4.744-3.379,10.147-5.278,15.383-6.293
			c-0.458-2.281-1.612-4.475-4.054-5.923c-7.348-4.36-14.046,1.602-18.27,4.452c-4.225,2.851-13.316-0.886-11.846-7.594
			c0,0,3.403-8.759,1.016-12.783c-2.388-4.024-3.682-4.167-3.614-5.518c0.184-3.689,5.478-18.11,16.133-20.458
			c10.653-2.348,13.226,5.03,13.226,5.03s6.245-9.39-3.49-16.769c0,0,8.266-4.359,18.368-5.365c0,0-4.316-27.604-54.647-27.604
			S15.856,42.775,15.856,42.775c10.102,1.006,18.368,5.365,18.368,5.365C24.488,55.52,30.734,64.909,30.734,64.909z"/>
		<path style="fill:#CCB6A7;" d="M113.627,101.779c-7.348-4.36-14.046,1.602-18.27,4.452c-2.091,1.411-11.949,3.975-24.855,3.975
			c-12.904,0-22.72-2.534-24.854-3.975c-4.225-2.851-10.923-8.813-18.27-4.452c-2.442,1.448-3.596,3.642-4.054,5.923
			c5.234,1.015,10.638,2.914,15.382,6.293c15.725,11.199,19.644,16.944,31.796,10.754c12.151,6.19,16.071,0.445,31.796-10.754
			c4.744-3.379,10.147-5.278,15.383-6.293C117.223,105.421,116.068,103.228,113.627,101.779z"/>
		<g>
			<g>
				<circle style="fill:#523A29;" cx="98.945" cy="76.406" r="6.426"/>
				<circle style="fill:#A95700;" cx="98.945" cy="76.406" r="4.05"/>
				<circle style="fill:#D6A26C;" cx="97.725" cy="75.144" r="1.631"/>
			</g>
			<g>
				<circle style="fill:#523A29;" cx="42.06" cy="76.406" r="6.426"/>
				<circle style="fill:#A95700;" cx="42.06" cy="76.406" r="4.051"/>
				<circle style="fill:#D6A26C;" cx="40.839" cy="75.144" r="1.63"/>
			</g>
		</g>
		<g>
			<g>
				<path style="fill:#332A24;" d="M70.502,106.167c-8.097,0-11.855,3.08-11.855,3.08s8.018,9.249,11.855,9.411
					c3.838-0.162,11.856-9.411,11.856-9.411S78.599,106.167,70.502,106.167z"/>
				<path style="fill:#424140;" d="M76.45,106.79c-1.63-0.365-3.607-0.623-5.948-0.623c-8.097,0-11.855,3.08-11.855,3.08
					l0.003,0.004c1.064-0.376,4.893-1.529,11.853-1.529c6.961,0,10.788,1.153,11.853,1.529c0.001-0.001,0.004-0.004,0.004-0.004
					S80.458,107.691,76.45,106.79"/>
			</g>
		</g>
	</g>
	<path style="opacity:0.1;fill:#FFCE99;" d="M70.502,15.171c-11.801,0-21.071,1.517-28.351,3.841
		c-6.166-4.905-15.465-10.616-25.56-10.853C10.069,8.006,1.1,42.305,1.1,52.217c0,5.355,4.031,11.195,7.737,15.435
		C5.89,75.219,4.436,80.397,4.436,80.397s6.451-2.903,13.708-3.318c0,0-15.32,12.858-18.144,30.694c0,0,11.209-2.421,23.325-0.071
		c0.628,0.122,1.259,0.258,1.89,0.406c0.048,0.011,0.095,0.021,0.142,0.033c0.616,0.146,1.233,0.307,1.85,0.48
		c0.029,0.008,0.059,0.016,0.087,0.023c1.287,0.366,2.571,0.795,3.842,1.293c0.094,0.036,0.185,0.077,0.278,0.114
		c0.063,0.025,0.126,0.056,0.19,0.081c2.444,10.999,24.971,22.712,38.899,22.712V15.171z"/>
</g>
</svg>