<?xml version="1.0" encoding="iso-8859-1"?>
<!-- Uploaded to: SVG Repo, www.svgrepo.com, Generator: SVG Repo Mixer Tools -->
<svg height="800px" width="800px" version="1.1" id="Layer_1" xmlns="http://www.w3.org/2000/svg" xmlns:xlink="http://www.w3.org/1999/xlink" 
	 viewBox="0 0 511.999 511.999" xml:space="preserve">
<ellipse style="fill:#FFCC9C;" cx="256.303" cy="322.135" rx="223.196" ry="165.33"/>
<path style="fill:#FFEBD2;" d="M307.742,264.268h-51.436H204.87L24.844,338.667c25.718,90.932,111.445,90.932,137.163,90.932
	s68.581,41.333,94.299,41.333s68.581-41.333,94.299-41.333c25.718,0,111.445,0,137.163-90.932L307.742,264.268z"/>
<path style="fill:#CFBAA4;" d="M157.109,280.801v90.932c49.388-16.463,76.919,25.36,89.848,60.175c3.186,8.579,15.514,8.579,18.7,0
	c12.929-34.815,40.46-76.638,89.848-60.175v-90.932L157.109,280.801L157.109,280.801z"/>
<ellipse style="fill:#DC9B5A;" cx="107.506" cy="272.536" rx="99.198" ry="132.264"/>
<path style="fill:#9F8976;" d="M111.194,384.961c-53.417-12.17-83.565-79.774-67.337-150.996
	c9.488-41.642,32.766-75.18,61.11-93.523c-53.599,1.816-96.655,60.191-96.655,132.093c0,73.047,44.412,132.264,99.198,132.264
	c23.522,0,45.098-10.969,62.102-29.21C151.186,385.701,130.986,389.471,111.194,384.961z"/>
<ellipse style="fill:#DC9B5A;" cx="405.1" cy="272.536" rx="99.198" ry="132.264"/>
<path style="fill:#9F8976;" d="M401.42,384.961c53.417-12.17,83.565-79.774,67.337-150.996c-9.488-41.642-32.766-75.18-61.11-93.523
	c53.599,1.816,96.655,60.191,96.655,132.093c0,73.047-44.412,132.264-99.198,132.264c-23.522,0-45.098-10.969-62.102-29.21
	C361.427,385.701,381.627,389.471,401.42,384.961z"/>
<circle style="fill:#FFCE56;" cx="380.301" cy="297.335" r="49.599"/>
<circle style="fill:#464655;" cx="380.301" cy="297.335" r="24.8"/>
<circle style="fill:#FFCE56;" cx="132.305" cy="297.335" r="49.599"/>
<g>
	<path style="fill:#464655;" d="M281.106,371.733c0-13.697-11.103-24.8-24.8-24.8c-13.697,0-24.8,11.103-24.8,24.8
		c0,0,14.466,82.665,24.8,82.665C266.639,454.398,281.106,371.733,281.106,371.733z"/>
	<circle style="fill:#464655;" cx="132.305" cy="297.335" r="24.8"/>
</g>
<path style="fill:#9F8976;" d="M256.306,91.814c-50.852,0-108.09,5.526-166.099,23.69c7.204,12.684,13.07,28.407,17.303,49.567
	C124.043,247.736,223.241,330.4,256.307,330.4s132.264-82.664,148.797-165.329c4.232-21.16,10.098-36.882,17.303-49.567
	C364.396,97.34,307.159,91.814,256.306,91.814z"/>
<g>
	<path style="fill:#726765;" d="M0.045,24.54c-0.897-1.047,11.318,144.625,57.866,181.863c23.243,18.594,54.33,29.346,90.318,41.077
		c-19.361-25.186-34.996-53.794-40.719-82.41C90.977,82.405,49.644,82.405,0.045,24.54z"/>
	<path style="fill:#726765;" d="M511.954,24.54c-36.853,42.995-68.605,54.216-89.549,90.964l0,0
		c-7.204,12.684-13.07,28.407-17.303,49.567c-5.702,28.51-21.239,57.019-40.502,82.138c35.634-11.625,66.425-22.355,89.487-40.806
		C500.637,169.164,512.851,23.493,511.954,24.54z"/>
</g>
</svg>