<?xml version="1.0" encoding="iso-8859-1"?>
<!-- Uploaded to: SVG Repo, www.svgrepo.com, Generator: SVG Repo Mixer Tools -->
<svg height="800px" width="800px" version="1.1" id="Layer_1" xmlns="http://www.w3.org/2000/svg" xmlns:xlink="http://www.w3.org/1999/xlink" 
	 viewBox="0 0 512.001 512.001" xml:space="preserve">
<path style="fill:#FFCD9B;" d="M389.436,321.693c0,61.377-78.646,103.513-133.36,103.513s-133.36-42.136-133.36-103.513
	s59.708-94.622,133.36-94.622S389.436,260.315,389.436,321.693z"/>
<path style="fill:#FFBE64;" d="M256.077,227.071c-49.355,0-92.344,5.888-115.405,39.099l26.498,6.624
	c88.907,44.453,62.235,88.907,62.235,88.907h26.672h26.672c0,0-26.672-44.453,62.235-88.907l26.498-6.624
	C348.421,232.959,305.432,227.071,256.077,227.071z"/>
<ellipse style="fill:#FFCD9B;" cx="256.079" cy="415.042" rx="33.022" ry="26.672"/>
<path style="fill:#FFDEB7;" d="M284.129,350.738c-14.258-15.516-41.846-15.516-56.103,0c-12.588,13.699-24.657,31.826-24.657,50.97
	c0,12.275,14.159,22.226,31.625,22.226c8.137,0,15.479-2.221,21.084-5.769c5.605,3.548,12.947,5.769,21.084,5.769
	c17.466,0,31.625-9.951,31.625-22.226C308.785,382.564,296.717,364.437,284.129,350.738z"/>
<g>
	<circle style="fill:#464655;" cx="206.545" cy="350.906" r="16.511"/>
	<circle style="fill:#464655;" cx="305.612" cy="350.906" r="16.511"/>
</g>
<path style="fill:#FF9F82;" d="M130.851,307.185c5.43,2.174,11.646,1.763,16.605-0.891c21.373-11.428,69.003-59.412,60.018-74.213
	c-39.867-65.67-103.108-144.936-172.53-160.971c-44.046-10.174-39.974,75.97-22.973,143.97
	C21.184,251.928,65.542,281.038,130.851,307.185z"/>
<ellipse style="fill:#464655;" cx="256.079" cy="393.474" rx="16.511" ry="12.383"/>
<path style="fill:#FFCD9B;" d="M179.762,280.109c17.737-17.842,33.169-39.041,27.713-48.027
	c-39.867-65.67-103.108-144.936-172.53-160.971c-5.662-1.309-10.516-1-14.662,0.632C123.988,94.981,172.425,240.508,179.762,280.109
	z"/>
<path style="fill:#FF9F82;" d="M381.15,307.185c-5.43,2.174-11.646,1.763-16.605-0.891c-21.373-11.428-69.003-59.412-60.018-74.213
	c39.867-65.669,103.108-144.936,172.53-160.971c44.046-10.174,39.974,75.97,22.973,143.97
	C490.817,251.928,446.458,281.038,381.15,307.185z"/>
<path style="fill:#FFCD9B;" d="M332.239,280.109c-17.737-17.842-33.169-39.041-27.713-48.027
	c39.867-65.67,103.108-144.936,172.53-160.971c5.662-1.309,10.516-1,14.662,0.632C388.013,94.981,339.577,240.508,332.239,280.109z"
	/>
</svg>