<?xml version="1.0" encoding="iso-8859-1"?>
<!-- Uploaded to: SVG Repo, www.svgrepo.com, Generator: SVG Repo Mixer Tools -->
<svg height="800px" width="800px" version="1.1" id="Layer_1" xmlns="http://www.w3.org/2000/svg" xmlns:xlink="http://www.w3.org/1999/xlink" 
	 viewBox="0 0 512.001 512.001" xml:space="preserve">
<g>
	<path style="fill:#B47D5A;" d="M66.212,289.204V10.312c0-5.477,4.44-9.919,9.919-9.919l0,0c3.991,0,7.593,2.392,9.141,6.069
		l63.458,150.713L66.212,289.204z"/>
	<path style="fill:#B47D5A;" d="M340.003,146.643c0,0,83.51-156.582,104.388-146.143c9.337,4.668,10.438,104.388-20.878,229.653
		L340.003,146.643z"/>
</g>
<path style="fill:#FFA54B;" d="M256.001,82.912c-103.555,0.091-189.789,28.77-189.789,200.137
	c0,67.319,12.289,134.012,41.259,169.597c44.679,54.881,116.573,59.313,148.531,59.355c31.958-0.041,103.851-4.472,148.531-59.355
	c28.97-35.585,41.259-102.279,41.259-169.597C445.791,111.68,359.557,83.002,256.001,82.912z"/>
<path style="fill:#FFDEB7;" d="M372.91,481.166c-38.584,1.854-67.399-26.927-67.399-26.927h-49.51h-49.51
	c0,0-28.815,28.781-67.399,26.927c41.893,27.935,91.755,30.802,116.909,30.835C281.156,511.968,331.018,509.1,372.91,481.166z"/>
<g>
	<path style="fill:#C3875A;" d="M80.14,183.016c17.833-3.947,38.287,6.889,43.835,40.174
		c8.252,49.51,37.874,139.275,113.831,152.155h18.196V82.912C177.238,82.981,108.539,99.664,80.14,183.016z"/>
	<path style="fill:#C3875A;" d="M431.864,183.016c-17.833-3.947-38.287,6.889-43.835,40.174
		c-8.252,49.51-37.874,139.275-113.831,152.155h-18.196V82.912C334.765,82.981,403.464,99.664,431.864,183.016z"/>
</g>
<path style="fill:#FFCDA5;" d="M198.239,443.825c0,27.344,25.861,49.51,57.762,49.51s57.762-22.166,57.762-49.51H198.239z"/>
<path style="fill:#B47D5A;" d="M214.743,443.825c0,13.672,18.472,24.755,41.259,24.755c22.786,0,41.259-11.083,41.259-24.755
	H214.743z"/>
<g>
	<ellipse style="fill:#464655;" cx="78.589" cy="260.32" rx="20.629" ry="37.133"/>
	<ellipse style="fill:#464655;" cx="433.412" cy="260.32" rx="20.629" ry="37.133"/>
</g>
<path style="fill:#FFDEB7;" d="M256.001,336.553c-34.023,0-82.517,49.51-82.517,82.517c0,24.755,16.503,49.51,41.259,49.51
	c19.775,0,30.58-8.936,36.113-21.395c0.906-2.038,2.916-3.361,5.146-3.361c2.23,0,4.24,1.322,5.146,3.361
	c5.533,12.459,16.337,21.395,36.113,21.395c24.755,0,41.259-24.755,41.259-49.51C338.518,386.063,290.024,336.553,256.001,336.553z"
	/>
<circle style="fill:#FFA54B;" cx="256" cy="369.563" r="41.259"/>
<path style="fill:#B47D5A;" d="M288.791,365.679c-6.656-1.346-13.232,2.961-14.593,9.666c-1.748,8.602-9.404,14.844-18.196,14.844
	s-16.447-6.241-18.196-14.844c-1.362-6.705-7.945-11.004-14.593-9.666c-6.696,1.362-11.024,7.897-9.662,14.597
	c3.224,15.882,15.115,28.192,30.073,32.703v6.09c0,6.838,5.544,12.378,12.378,12.378c6.833,0,12.378-5.54,12.378-12.378v-6.09
	c14.958-4.511,26.849-16.82,30.073-32.703C299.815,373.576,295.487,367.041,288.791,365.679z"/>
</svg>