<?xml version="1.0" encoding="iso-8859-1"?>
<!-- Uploaded to: SVG Repo, www.svgrepo.com, Generator: SVG Repo Mixer Tools -->
<svg height="800px" width="800px" version="1.1" id="Layer_1" xmlns="http://www.w3.org/2000/svg" xmlns:xlink="http://www.w3.org/1999/xlink" 
	 viewBox="0 0 512.001 512.001" xml:space="preserve">
<g>
	<path style="fill:#937E6D;" d="M41.29,128C17.435,128,0,156.423,0,185.807c0,39.769,41.978,99.097,74.323,99.097l13.31-140.802
		C74.323,136.258,57.807,128,41.29,128z"/>
	<path style="fill:#937E6D;" d="M470.711,128c23.856,0,41.29,28.422,41.29,57.807c0,39.769-41.978,99.097-74.323,99.097
		l-13.31-140.802C437.678,136.258,454.194,128,470.711,128z"/>
</g>
<ellipse style="fill:#877364;" cx="256.001" cy="231.226" rx="206.452" ry="202.323"/>
<path style="fill:#937E6D;" d="M355.248,334.452c0-52.185,55.565-83.785,37.543-136.594c-10.657-31.227-39.364-54.104-72.242-53.32
	c-11.872,0.283-23.044,3.375-32.891,8.639c-9.807,5.243-20.612,7.879-31.401,7.858c-10.828,0.022-21.672-2.614-31.516-7.858
	c-9.883-5.264-21.095-8.356-33.011-8.639c-32.999-0.783-61.812,22.093-72.507,53.32c-18.088,52.807,37.68,84.409,37.68,136.594
	H355.248z"/>
<g>
	<circle style="fill:#464655;" cx="189.936" cy="218.839" r="24.774"/>
	<circle style="fill:#464655;" cx="322.065" cy="218.839" r="24.774"/>
</g>
<path style="fill:#937E6D;" d="M363.356,375.743c0,59.128-25.485,107.355-107.355,107.355s-107.355-48.227-107.355-107.355
	s48.227-132.129,107.355-132.129S363.356,316.615,363.356,375.743z"/>
<path style="fill:#CFB396;" d="M148.645,367.485v8.258l0,0c0,47.472,48.064,66.065,107.355,66.065s107.355-18.593,107.355-66.065
	v-8.258H148.645z"/>
<path style="fill:#9F8976;" d="M289.052,252.338c-12.556-6.592-20.665-19.318-20.665-33.499l0,0c0-6.839-5.548-12.387-12.387-12.387
	s-12.387,5.548-12.387,12.387l0,0c0,14.182-8.108,26.907-20.665,33.499c-42.95,22.55-74.303,83.419-74.303,115.147
	c0,39.418,48.227,49.548,107.355,49.548s107.355-10.13,107.355-49.548C363.356,335.757,332.003,274.888,289.052,252.338z"/>
<path style="fill:#6E5550;" d="M256.001,325.34c-5.75,0-11.492-1.669-16.508-5.016l-7.734-5.153
	c-5.694-3.79-7.234-11.484-3.435-17.178c3.799-5.701,11.484-7.234,17.178-3.435l7.734,5.153c1.677,1.113,3.854,1.129,5.532,0
	l7.734-5.153c5.677-3.806,13.379-2.266,17.178,3.435c3.799,5.694,2.259,13.387-3.435,17.178l-7.734,5.153
	C267.493,323.669,261.75,325.34,256.001,325.34z"/>
</svg>