<?xml version="1.0" encoding="iso-8859-1"?>
<!-- Uploaded to: SVG Repo, www.svgrepo.com, Generator: SVG Repo Mixer Tools -->
<svg height="800px" width="800px" version="1.1" id="Layer_1" xmlns="http://www.w3.org/2000/svg" xmlns:xlink="http://www.w3.org/1999/xlink" 
	 viewBox="0 0 512 512" xml:space="preserve">
<g>
	<path style="fill:#6B676E;" d="M49.548,157.817c0,0-41.29-32.016-41.29-66.065c0-33.032,16.516-82.581,74.323-74.323
		c41.685,5.955,49.548,82.581,49.548,82.581L49.548,157.817z"/>
	<path style="fill:#6B676E;" d="M462.453,157.817c0,0,41.29-32.016,41.29-66.065c0-33.032-16.516-82.581-74.323-74.323
		c-41.685,5.955-49.548,82.581-49.548,82.581L462.453,157.817z"/>
</g>
<path style="fill:#FFEBD2;" d="M512,280.774c0,132.263-114.615,214.71-256.001,214.71S0,413.038,0,280.774
	S141.98,33.032,256.001,33.032S512,148.511,512,280.774z"/>
<path style="fill:#E9D7C3;" d="M165.162,421.063c0,41.048,40.67,74.323,90.839,74.323s90.839-33.275,90.839-74.323H165.162z"/>
<path style="fill:#FFFFFF;" d="M322.065,305.549C297.291,264.258,280.775,256,256.001,256c-24.774,0-41.29,8.258-66.065,49.548
	c-21.244,35.407-39.365,105.632-24.774,123.871c33.032,41.29,82.581,16.516,90.839,16.516c8.258,0,57.807,24.774,90.839-16.516
	C361.43,411.181,343.308,340.954,322.065,305.549z"/>
<g>
	<path style="fill:#6B676E;" d="M305.549,247.742c0-22.804,18.487-41.29,41.29-41.29c24.774,0,99.097,49.549,99.097,82.581
		s-39.967,72.452-74.323,49.548C346.839,322.065,305.549,264.258,305.549,247.742z"/>
	<path style="fill:#6B676E;" d="M206.452,247.742c0-22.804-18.487-41.29-41.29-41.29c-24.774,0-99.097,49.549-99.097,82.581
		s39.967,72.452,74.323,49.548C165.162,322.065,206.452,264.258,206.452,247.742z"/>
</g>
<g>
	<path style="fill:#464655;" d="M256.001,363.311c-15.03,0-57.807,2.834-57.807,16.516c0,24.819,52.742,42.62,57.807,41.29
		c5.064,1.33,57.807-16.472,57.807-41.29C313.807,366.144,271.03,363.311,256.001,363.311z"/>
	<circle style="fill:#464655;" cx="165.162" cy="247.742" r="16.516"/>
	<circle style="fill:#464655;" cx="346.839" cy="247.742" r="16.516"/>
</g>
</svg>