<?xml version="1.0" encoding="iso-8859-1"?>
<!-- Uploaded to: SVG Repo, www.svgrepo.com, Generator: SVG Repo Mixer Tools -->
<svg height="800px" width="800px" version="1.1" id="Layer_1" xmlns="http://www.w3.org/2000/svg" xmlns:xlink="http://www.w3.org/1999/xlink" 
	 viewBox="0 0 512 512" xml:space="preserve">
<path style="fill:#AA6941;" d="M415.03,199.678l47.422,6.774c0-47.484-41.29-107.355-41.29-107.355h33.032
	c-24.774-33.032-74.323-41.29-74.323-41.29l24.774-16.516c-38.194-20.645-99.097-8.258-99.097-8.258S314.495,0,313.806,0
	C287.656,0,256,26.839,256,41.29C256,26.839,224.344,0,198.194,0c-0.689,0,8.258,33.032,8.258,33.032s-60.903-12.387-99.097,8.258
	l24.774,16.516c0,0-49.548,8.258-74.323,41.29h33.032c0,0-41.29,59.871-41.29,107.355l47.422-6.775
	c-37.115,39.315-55.68,92.435-55.68,155.42l24.774-8.259c3.882,53.716,18.249,106.977,33.032,123.872
	c0,0,16.13-25.344,16.516-24.774c27.527,40.602,66.065,57.806,66.065,57.806s7.543-25.435,8.258-24.774
	C216.774,503.742,256,512,256,512s39.226-8.258,66.065-33.032c0.715-0.661,8.258,24.774,8.258,24.774s38.537-17.205,66.065-57.806
	c0.386-0.57,16.516,24.774,16.516,24.774c14.783-16.895,29.15-70.156,33.032-123.872l24.774,8.259
	C470.71,292.111,452.145,238.991,415.03,199.678z"/>
<g>
	<path style="fill:#FFB94B;" d="M198.194,404.645c0,30.555,27.034,49.548,57.806,49.548s57.806-19.819,57.806-49.548H198.194z"/>
	<path style="fill:#FFB94B;" d="M297.071,106.305l0.007,0.009c-10.97-3.948-18.95-3.03-25.032,1.064
		c-9.523,6.409-22.568,6.409-32.091,0c-6.083-4.094-14.063-5.013-25.032-1.064l-0.709,0.264
		c-38.533,14.879-65.569,51.691-65.569,108.131c0,49.548,33.032,135.972,33.032,165.161h148.645
		c0-27.096,33.032-116.645,33.032-165.161C363.355,157.92,335.983,121.002,297.071,106.305z"/>
</g>
<path style="fill:#FFAB4B;" d="M256,256L256,256c-33.092,0-61.073,24.498-65.446,57.3l-8.876,66.571h148.645l-8.876-66.571
	C317.073,280.498,289.092,256,256,256z"/>
<path style="fill:#FFE187;" d="M289.032,338.581c-13.57,0-52.493,0-66.065,0c-22.804,0-41.29,18.487-41.29,41.29
	c0,22.804,18.487,41.29,41.29,41.29c13.57,0,25.505-6.635,33.032-16.743c7.527,10.108,19.461,16.743,33.032,16.743
	c22.804,0,41.29-18.487,41.29-41.29C330.323,357.067,311.836,338.581,289.032,338.581z"/>
<g>
	<path style="fill:#464655;" d="M280.774,330.323h-49.548c-4.565,0-8.258,3.698-8.258,8.258s3.693,8.258,8.258,8.258
		c9.105,0,16.516,7.408,16.516,16.516v8.258c0,4.561,3.693,8.258,8.258,8.258c4.565,0,8.258-3.698,8.258-8.258v-8.258
		c0-9.109,7.412-16.516,16.516-16.516c4.565,0,8.258-3.698,8.258-8.258S285.339,330.323,280.774,330.323z"/>
	<circle style="fill:#464655;" cx="322.065" cy="214.71" r="12.387"/>
	<circle style="fill:#464655;" cx="189.935" cy="214.71" r="12.387"/>
</g>
<g>
	<path style="fill:#FFAB4B;" d="M105.854,190.858c13.949-12.972,30.158-24.226,48.628-33.592
		c-32.465-22.213-71.901-16.109-71.901-16.109S82.056,167.971,105.854,190.858z"/>
	<path style="fill:#FFAB4B;" d="M406.145,190.858c23.798-22.886,23.273-49.701,23.273-49.701s-39.436-6.104-71.901,16.109
		C375.987,166.632,392.196,177.885,406.145,190.858z"/>
</g>
</svg>