<?xml version="1.0" encoding="iso-8859-1"?>
<!-- Uploaded to: SVG Repo, www.svgrepo.com, Generator: SVG Repo Mixer Tools -->
<svg height="800px" width="800px" version="1.1" id="Layer_1" xmlns="http://www.w3.org/2000/svg" xmlns:xlink="http://www.w3.org/1999/xlink" 
	 viewBox="0 0 512.001 512.001" xml:space="preserve">
<path style="fill:#464655;" d="M256.001,441.807h-74.323c24.774,39.639,66.065,49.548,74.323,49.548
	c8.258,0,49.548-9.91,74.323-49.548H256.001z"/>
<g>
	<path style="fill:#AA825A;" d="M181.678,128c0,0-57.807-107.355-90.839-107.355C45.558,20.645,0,86.71,0,136.258
		c0,33.032,49.548,74.323,107.355,82.581L181.678,128z"/>
	<path style="fill:#AA825A;" d="M330.323,128c0,0,57.807-107.355,90.839-107.355c45.281,0,90.839,66.065,90.839,115.613
		c0,33.032-49.548,74.323-107.355,82.581L330.323,128z"/>
</g>
<path style="fill:#D7A055;" d="M323.253,94.966c-25.412-13.707-50.737-24.772-67.253-33.03
	c-16.516,8.258-41.841,19.323-67.253,33.03C130.269,126.51,66.065,185.294,66.065,260.13c0,99.097,57.807,107.355,99.097,173.42
	h90.839h90.839c41.29-66.065,99.097-74.323,99.097-173.42C445.936,185.294,381.731,126.51,323.253,94.966z"/>
<g>
	
		<ellipse transform="matrix(0.7071 -0.7071 0.7071 0.7071 -149.8983 204.2361)" style="fill:#B08758;" cx="171.586" cy="283.061" rx="40.875" ry="53.677"/>
	
		<ellipse transform="matrix(0.7071 0.7071 -0.7071 0.7071 299.8624 -157.8064)" style="fill:#B08758;" cx="340.42" cy="283.063" rx="40.875" ry="53.677"/>
</g>
<path style="fill:#7C665D;" d="M256.001,276.646c83.983,0,121.308,112.066,102.645,149.507
	c-23.568,47.281-70.568,28.482-102.645,28.482s-79.077,18.798-102.645-28.482C134.692,388.712,172.018,276.646,256.001,276.646z"/>
<g>
	<circle style="fill:#464655;" cx="161.033" cy="272.517" r="20.645"/>
	<circle style="fill:#464655;" cx="350.968" cy="272.517" r="20.645"/>
	<path style="fill:#464655;" d="M272.517,433.549h-33.032c-18.243,0-33.032-14.789-33.032-33.032l0,0
		c0-18.243,14.789-33.032,33.032-33.032h33.032c18.243,0,33.032,14.789,33.032,33.032l0,0
		C305.549,418.76,290.76,433.549,272.517,433.549z"/>
</g>
</svg>