<?xml version="1.0" encoding="iso-8859-1"?>
<!-- Uploaded to: SVG Repo, www.svgrepo.com, Generator: SVG Repo Mixer Tools -->
<svg height="800px" width="800px" version="1.1" id="Layer_1" xmlns="http://www.w3.org/2000/svg" xmlns:xlink="http://www.w3.org/1999/xlink" 
	 viewBox="0 0 512.001 512.001" xml:space="preserve">
<g>
	<path style="fill:#C39B6E;" d="M363.356,74.323C407.399,74.323,404.646,0,464.473,0c36.473,0,59.183,35.785,41.29,74.323
		c-13.911,29.96-33.032,66.065-24.774,90.839L363.356,74.323z"/>
	<path style="fill:#C39B6E;" d="M148.645,74.323C104.602,74.323,107.355,0,47.528,0C11.056,0-11.654,35.785,6.238,74.323
		c13.911,29.96,33.032,66.065,24.774,90.839L148.645,74.323z"/>
</g>
<path style="fill:#AA825A;" d="M256.001,41.29C114.615,41.29,0,115.613,0,297.291c0,140.387,114.615,214.71,256.001,214.71
	s256.001-74.323,256.001-214.71C512,115.613,397.385,41.29,256.001,41.29z"/>
<path style="fill:#8C705C;" d="M256.001,82.581c-91.217,0-198.194,58.676-198.194,202.105c0,110.833,88.734,169.508,198.194,169.508
	s198.194-58.676,198.194-169.507C454.194,141.257,347.216,82.581,256.001,82.581z"/>
<g>
	<path style="fill:#7C665D;" d="M220.251,272.517c-4.96-16.735-15.819-49.548-47.457-49.548
		c-23.729,0-92.525,50.321-110.734,107.355c-15.819,49.548,78.327,132.129,166.101,132.129
		C270.817,462.453,233.708,317.922,220.251,272.517z"/>
	<path style="fill:#7C665D;" d="M292.081,272.517c4.96-16.735,15.819-49.548,47.457-49.548c23.729,0,92.525,50.321,110.734,107.355
		c15.819,49.548-78.327,132.129-166.101,132.129C241.516,462.453,278.626,317.922,292.081,272.517z"/>
</g>
<path style="fill:#C39B6E;" d="M189.936,421.162c0,26.604,43.261,49.548,66.065,49.548c22.804,0,66.065-22.944,66.065-49.548
	H189.936z"/>
<path style="fill:#D7B487;" d="M273.813,256.001h-35.626c-9.457,0-18.061,5.342-22.229,13.83
	c-16.545,33.698-47.421,120.167-34.28,159.589c7.386,22.159,57.807,0,74.323,0s66.937,22.159,74.323,0
	c13.141-39.422-17.735-125.891-34.28-159.589C291.875,261.342,283.27,256.001,273.813,256.001z"/>
<g>
	<circle style="fill:#464655;" cx="173.42" cy="256.001" r="16.516"/>
	<circle style="fill:#464655;" cx="338.581" cy="256.001" r="16.516"/>
	<ellipse style="fill:#464655;" cx="256.001" cy="371.614" rx="41.29" ry="33.032"/>
</g>
</svg>