<?xml version="1.0" encoding="iso-8859-1"?>
<!-- Uploaded to: SVG Repo, www.svgrepo.com, Generator: SVG Repo Mixer Tools -->
<svg height="800px" width="800px" version="1.1" id="Layer_1" xmlns="http://www.w3.org/2000/svg" xmlns:xlink="http://www.w3.org/1999/xlink" 
	 viewBox="0 0 512.001 512.001" xml:space="preserve">
<g>
	<path style="fill:#CFB396;" d="M497.808,102.247c0.121,0,0.234,0,0.347-0.008c4.556-0.186,8.097-4.017,7.911-8.573
		c-0.105-2.686-3.154-66.097-48.29-88.662c-4.081-2.033-9.032-0.387-11.08,3.693c-2.041,4.081-0.387,9.041,3.693,11.08
		c36.363,18.177,39.154,73.999,39.177,74.556C489.752,98.772,493.414,102.247,497.808,102.247z"/>
	<path style="fill:#CFB396;" d="M313.583,218.844c4.33,0,7.968-3.379,8.234-7.758c1.226-20.266,22.645-39.863,43.355-58.815
		c21.508-19.67,43.742-40.017,47.524-64.282c0.702-4.508-2.388-8.734-6.887-9.436c-4.621-0.653-8.734,2.388-9.436,6.887
		c-2.887,18.54-22.944,36.895-42.346,54.645c-23.137,21.17-47.073,43.065-48.694,69.999c-0.275,4.556,3.194,8.468,7.742,8.742
		C313.244,218.836,313.414,218.844,313.583,218.844z"/>
	<path style="fill:#CFB396;" d="M14.192,102.247c-0.121,0-0.234,0-0.347-0.008c-4.556-0.186-8.097-4.017-7.911-8.573
		c0.105-2.685,3.154-66.095,48.29-88.661c4.081-2.033,9.032-0.387,11.08,3.693c2.041,4.081,0.387,9.041-3.693,11.08
		C25.248,37.957,22.458,93.78,22.433,94.336C22.249,98.772,18.587,102.247,14.192,102.247z"/>
	<path style="fill:#CFB396;" d="M198.418,218.844c-4.33,0-7.968-3.379-8.234-7.758c-1.226-20.266-22.645-39.863-43.355-58.815
		c-21.508-19.67-43.742-40.017-47.524-64.282c-0.702-4.508,2.387-8.734,6.887-9.436c4.621-0.653,8.734,2.388,9.436,6.887
		c2.887,18.54,22.944,36.895,42.346,54.645c23.137,21.17,47.073,43.065,48.694,69.999c0.275,4.556-3.194,8.468-7.742,8.742
		C198.757,218.836,198.587,218.844,198.418,218.844z"/>
	<path style="fill:#CFB396;" d="M148.864,302.238c-16.516-24.774-28.487-16.516-57.684-16.516c-41.29,0-85.334-75.699-82.581-90.839
		c1.775-9.765,148.522,49.548,148.522,49.548L148.864,302.238z"/>
</g>
<path style="fill:#877364;" d="M148.864,310.496c-2.718,0-5.314-1.347-6.871-3.678c-10.202-15.298-16.024-14.871-33.347-13.629
	c-5.129,0.371-10.951,0.791-17.709,0.791c-23.766,0-45.267-19.782-59.113-36.379C14.743,237.117-2.2,206.746,0.235,193.4
	c0.492-2.726,2.202-5.081,4.685-6.452c3.693-2.048,13.476-7.395,155.29,49.823c3.524,1.428,5.621,5.064,5.089,8.831l-8.258,57.806
	c-0.484,3.387-3.008,6.129-6.346,6.887C150.081,310.432,149.468,310.496,148.864,310.496z M119.162,276.15
	c8.5,0,16.298,1.436,24.032,7.403l4.839-33.879c-52.524-21.041-109.282-41.799-130.056-46.597
	c3.79,10.807,14.589,31.105,31.121,49.202c14.83,16.242,29.694,25.185,41.838,25.185c6.17,0,11.67-0.395,16.533-0.742
	C111.533,276.423,115.42,276.15,119.162,276.15z"/>
<path style="fill:#CFB396;" d="M363.136,302.238c16.516-24.774,28.487-16.516,57.684-16.516c41.29,0,85.334-75.699,82.581-90.839
	c-1.775-9.765-148.522,49.548-148.522,49.548L363.136,302.238z"/>
<path style="fill:#877364;" d="M361.306,310.295c-3.338-0.758-5.863-3.5-6.346-6.887l-8.258-57.806
	c-0.533-3.766,1.565-7.403,5.089-8.831c141.815-57.218,151.596-51.871,155.29-49.823c2.484,1.371,4.194,3.725,4.685,6.452
	c2.435,13.347-14.508,43.718-31.589,64.201c-13.847,16.597-35.347,36.379-59.113,36.379c-6.758,0-12.581-0.419-17.709-0.791
	c-17.322-1.242-23.145-1.669-33.347,13.629c-1.557,2.331-4.153,3.678-6.871,3.678C362.532,310.496,361.918,310.432,361.306,310.295z
	 M404.532,276.722c4.863,0.347,10.363,0.742,16.533,0.742c12.146,0,27.008-8.943,41.838-25.185
	c16.533-18.097,27.331-38.395,31.121-49.202c-20.774,4.798-77.532,25.557-130.056,46.597l4.839,33.879
	c7.734-5.967,15.532-7.403,24.032-7.403C396.58,276.15,400.467,276.423,404.532,276.722z"/>
<path style="fill:#9F8976;" d="M511.889,12.199c-0.105-4.556-3.637-7.943-8.452-8.064c-4.556,0.105-8.169,3.887-8.065,8.452
	c0.573,24.766-1.21,60.459-6.96,86.194c-0.395,0.621-0.71,1.299-0.935,2.041c-10.484,34.314-64.952,45.476-104.717,53.629
	c-11.734,2.411-21.879,4.484-30.121,6.927c-28.117,8.332-39.885,24.117-44.402,32.778c-28.455,0.86-36.692,8.173-52.237,8.173
	c-15.545,0-23.781-7.314-52.236-8.173c-4.516-8.661-16.285-24.445-44.403-32.778c-8.242-2.443-18.388-4.516-30.12-6.927
	c-39.766-8.153-94.234-19.315-104.717-53.629c-0.226-0.742-0.54-1.419-0.935-2.041c-5.75-25.734-7.532-61.428-6.959-86.194
	c0.105-4.565-3.508-8.347-8.065-8.452c-4.814,0.121-8.347,3.508-8.452,8.064c-0.427,18.395-1.073,111.177,28.573,130.936
	c20.419,13.612,44.734,20.556,68.242,27.266c26.533,7.576,51.998,14.854,72.95,30.76c-24.432,11.861-46.004,37.387-46.004,67.231
	c0,34.049,24.774,173.419,49.548,198.194C198.194,491.36,256,491.36,256,491.36s57.806,0,82.581-24.774
	c24.774-24.774,49.548-164.145,49.548-198.194c0-29.845-21.572-55.37-46.005-67.232c20.953-15.906,46.418-23.185,72.95-30.76
	c23.508-6.71,47.822-13.654,68.242-27.266C512.961,123.377,512.316,30.594,511.889,12.199z"/>
<path style="fill:#FFDEB7;" d="M198.194,458.328c5.161,69.783,41.29,45.42,57.684,45.42c16.463,0,52.746,24.362,57.929-45.42
	H198.194z"/>
<path style="fill:#FFEBD2;" d="M321.942,450.07c0,25.085-34.139,24.774-66.065,24.774s-66.065,0.311-66.065-24.774
	c0-40.602,34.139-73.634,66.065-73.634S321.942,409.468,321.942,450.07z"/>
<path style="fill:#464655;" d="M297.168,438.386c0,19.546-27.608,28.994-41.29,28.994s-41.29-9.448-41.29-28.994
	c0-19.546,18.487-20.554,41.29-20.554S297.168,418.84,297.168,438.386z"/>
<g>
	
		<ellipse transform="matrix(0.7633 -0.646 0.646 0.7633 -166.1522 189.7488)" style="fill:#CFB396;" cx="175.886" cy="321.632" rx="29.593" ry="42.373"/>
	
		<ellipse transform="matrix(0.7633 0.646 -0.646 0.7633 287.34 -141.019)" style="fill:#CFB396;" cx="336.127" cy="321.641" rx="29.593" ry="42.373"/>
</g>
<g>
	<circle style="fill:#464655;" cx="165.162" cy="309.679" r="16.516"/>
	<circle style="fill:#464655;" cx="346.839" cy="309.679" r="16.516"/>
</g>
</svg>