<?xml version="1.0" encoding="iso-8859-1"?>
<!-- Uploaded to: SVG Repo, www.svgrepo.com, Generator: SVG Repo Mixer Tools -->
<svg height="800px" width="800px" version="1.1" id="Layer_1" xmlns="http://www.w3.org/2000/svg" xmlns:xlink="http://www.w3.org/1999/xlink" 
	 viewBox="0 0 512.001 512.001" xml:space="preserve">
<g>
	<path style="fill:#C39B6E;" d="M367.061,49.072c-24.687,42.758-52.485,129.94-17.501,150.138s119.502-34.237,144.188-76.995
		c24.686-42.758,16.338-93.794-18.645-113.991S391.747,6.313,367.061,49.072z"/>
	<path style="fill:#C39B6E;" d="M144.941,49.072c24.687,42.758,52.485,129.94,17.501,150.138S42.94,164.973,18.254,122.215
		S1.914,28.421,36.898,8.223S120.255,6.313,144.941,49.072z"/>
</g>
<path style="fill:#AC8A67;" d="M410.728,165.87c-22.952-25.491-36.54-58.458-35.556-92.745c0.38-13.225,2.253-27.816,6.376-43.587
	c-5.377,5.781-10.294,12.273-14.486,19.534c-11.4,19.746-19.608,48.814-38.236,60.883c-21.692-7.871-45.895-12.431-72.825-12.431
	s-51.133,4.56-72.824,12.431c-18.627-12.07-26.835-41.138-38.236-60.883c-4.193-7.261-9.109-13.753-14.486-19.534
	c4.122,15.77,5.996,30.362,6.376,43.587c0.984,34.288-12.604,67.254-35.556,92.745c-44.184,49.072-64.703,114.821-64.703,163.273
	c0,87.524,98.241,158.477,219.429,158.477S475.43,416.667,475.43,329.143C475.43,280.691,454.91,214.942,410.728,165.87z"/>
<ellipse style="fill:#E1BD93;" cx="256.001" cy="475.429" rx="48.762" ry="36.572"/>
<path style="fill:#C39B6E;" d="M306.739,366.481c-12.691-1.92-24.803-0.148-35.46,4.389c-9.75,4.15-20.807,4.15-30.556,0
	c-10.657-4.536-22.769-6.309-35.46-4.389c-28.515,4.314-51.215,27.965-54.477,56.62c-4.476,39.32,26.161,72.646,64.581,72.646
	c15.385,0,29.501-5.373,40.635-14.307c11.134,8.933,25.249,14.307,40.635,14.307c38.42,0,69.056-33.325,64.58-72.646
	C357.954,394.446,335.254,370.795,306.739,366.481z"/>
<ellipse style="fill:#EBB4A0;" cx="255.991" cy="438.858" rx="32.508" ry="24.381"/>
<g>
	<ellipse style="fill:#464655;" cx="154.414" cy="284.445" rx="20.318" ry="32.508"/>
	<ellipse style="fill:#464655;" cx="357.589" cy="284.445" rx="20.318" ry="32.508"/>
</g>
</svg>