<?xml version="1.0" encoding="iso-8859-1"?>
<!-- Uploaded to: SVG Repo, www.svgrepo.com, Generator: SVG Repo Mixer Tools -->
<svg height="800px" width="800px" version="1.1" id="Layer_1" xmlns="http://www.w3.org/2000/svg" xmlns:xlink="http://www.w3.org/1999/xlink" 
	 viewBox="0 0 512 512" xml:space="preserve">
<polygon style="fill:#BEA591;" points="478.969,210.581 487.227,152.774 462.453,161.032 470.711,111.484 445.936,119.742 
	445.936,86.709 412.904,94.967 404.646,61.935 379.872,78.451 371.614,37.161 338.581,61.935 330.323,20.645 297.291,53.677 
	280.775,12.387 256.001,45.419 231.226,12.387 214.71,53.677 181.678,20.645 173.42,61.935 140.387,37.161 132.129,78.451 
	107.355,61.935 99.097,94.967 66.065,86.709 66.065,119.742 41.29,111.484 49.548,161.032 24.774,152.774 33.032,210.581 "/>
<path style="fill:#FFEBD2;" d="M512,293.161h-33.032c0,0,24.774-56.774,24.774-82.581h-49.548l-57.904-14.272
	c9.044-14.631,10.421-36.653,10.421-36.653s-19.269,14.452-43.355,17.892v-41.29c-17.892,20.989-31.635,32.877-46.795,44.731
	c-1.721-8.258-8.258-22.021-11.011-26.15c-0.382-0.573-49.548,39.226-49.548,55.742c0-16.516-49.167-56.315-49.548-55.742
	c-2.753,4.129-9.29,17.892-11.011,26.15c-15.161-11.853-28.903-23.742-46.795-44.731v41.29
	c-24.086-3.441-43.355-17.892-43.355-17.892s1.376,22.021,10.42,36.653l-57.904,14.272H8.258c0,25.807,24.774,82.581,24.774,82.581
	H0l24.774,41.29L8.258,350.968c0,0,17.548,20.129,49.548,24.774l-24.774,24.774c57.807,8.258,163.613,99.097,222.968,99.097
	s165.162-90.839,222.968-99.097l-24.774-24.774c32-4.645,49.548-24.774,49.548-24.774l-16.516-16.516L512,293.161z"/>
<path style="fill:#FFD2AF;" d="M256.001,359.226c-57.807,0-99.097,44.332-99.097,44.332s24.774,66.499,99.097,96.055
	c74.323-29.556,99.097-96.055,99.097-96.055S313.807,359.226,256.001,359.226z"/>
<g>
	<circle style="fill:#464655;" cx="165.162" cy="326.194" r="16.516"/>
	<circle style="fill:#464655;" cx="346.839" cy="326.194" r="16.516"/>
</g>
<g>
	<ellipse style="fill:#9F8976;" cx="256.001" cy="474.839" rx="33.032" ry="24.774"/>
	<path style="fill:#9F8976;" d="M91.355,276.645c0-33.032,8.258-49.548,8.258-49.548l24.774,8.258v-33.032
		c-24.774-24.774-74.323-24.774-74.323-24.774S41.807,243.613,91.355,276.645"/>
	<path style="fill:#9F8976;" d="M420.646,276.645c0-33.032-8.258-49.548-8.258-49.548l-24.774,8.258v-33.032
		c24.774-24.774,74.323-24.774,74.323-24.774S470.195,243.613,420.646,276.645"/>
</g>
</svg>