<?xml version="1.0" encoding="iso-8859-1"?>
<!-- Uploaded to: SVG Repo, www.svgrepo.com, Generator: SVG Repo Mixer Tools -->
<svg height="800px" width="800px" version="1.1" id="Layer_1" xmlns="http://www.w3.org/2000/svg" xmlns:xlink="http://www.w3.org/1999/xlink" 
	 viewBox="0 0 512 512" xml:space="preserve">
<path style="fill:#AC8A67;" d="M346.845,297.271c-2.559-15.354-8.301-28.319-16.22-38.915
	c33.672-94.717,39.722-204.622,40.751-249.645c0.164-7.157-8.108-11.298-13.762-6.909C282.17,60.374,262.31,179.443,257.462,222.996
	c-0.488-0.007-0.975-0.055-1.463-0.055s-0.975,0.048-1.463,0.055c-4.848-43.553-24.708-162.622-100.152-221.194
	c-5.655-4.39-13.926-0.249-13.762,6.909c1.029,45.022,7.079,154.928,40.751,249.645c-7.92,10.597-13.661,23.56-16.22,38.915
	c-12.295,73.769-33.035,99.106-33.035,140.404c0,41.291,28.744,65.554,84.279,65.554L256,503.741l39.603-0.513
	c55.536,0,84.279-24.263,84.279-65.554C379.88,396.376,359.139,371.04,346.845,297.271z"/>
<path style="fill:#E1BE9B;" d="M280.774,512h-49.553c-13.627,0-24.777-11.149-24.777-24.777l0,0
	c0-13.627,11.149-24.777,24.777-24.777h49.553c13.627,0,24.777,11.149,24.777,24.777l0,0C305.551,500.85,294.401,512,280.774,512z"
	/>
<path style="fill:#C8A587;" d="M297.292,363.34c-5.506-26.841-21.335-33.035-41.294-33.035s-35.788,6.194-41.294,33.035
	c-7.682,37.452-29.456,62.189-32.644,91.869c-2.444,22.753,11.723,44.496,34.335,48.018c13.06,2.035,25.083-2.125,33.827-9.92
	c3.358-2.994,8.195-2.994,11.553,0c8.743,7.795,20.766,11.955,33.827,9.92c22.612-3.522,36.779-25.265,34.335-48.018
	C326.748,425.53,304.974,400.792,297.292,363.34z"/>
<path style="fill:#AC8A67;" d="M287.629,441.348c-2.532-3.795-7.654-4.836-11.453-2.291l-20.195,13.465l-20.195-13.465
	c-3.815-2.545-8.928-1.504-11.453,2.291c-2.532,3.795-1.508,8.925,2.291,11.453l24.777,16.518c1.387,0.924,2.985,1.387,4.582,1.387
	s3.194-0.464,4.582-1.387l24.777-16.518C289.137,450.272,290.162,445.143,287.629,441.348z"/>
<g>
	<ellipse style="fill:#464655;" cx="173.412" cy="313.784" rx="16.518" ry="24.777"/>
	<ellipse style="fill:#464655;" cx="338.589" cy="313.784" rx="16.518" ry="24.777"/>
</g>
<g>
	<path style="fill:#C8A587;" d="M198.842,241.074c15.591-142.429-24.371-212.432-49.044-241.05
		c-4.695-0.337-9.301,3.328-9.178,8.686c1.029,45.013,7.181,154.812,40.842,249.51C186.467,251.553,192.349,245.851,198.842,241.074
		z"/>
	<path style="fill:#C8A587;" d="M313.152,241.074C297.561,98.645,337.523,28.642,362.197,0.024c4.695-0.337,9.301,3.328,9.178,8.686
		c-1.029,45.013-7.181,154.812-40.842,249.51C325.529,251.553,319.646,245.851,313.152,241.074z"/>
</g>
</svg>