<?xml version="1.0" encoding="iso-8859-1"?>
<!-- Uploaded to: SVG Repo, www.svgrepo.com, Generator: SVG Repo Mixer Tools -->
<svg height="800px" width="800px" version="1.1" id="Layer_1" xmlns="http://www.w3.org/2000/svg" xmlns:xlink="http://www.w3.org/1999/xlink" 
	 viewBox="0 0 512.001 512.001" xml:space="preserve">
<path style="fill:#F0EBE1;" d="M256.001,53.678c141.385,0,256.001,47.687,256.001,198.194c0,67.317-35.621,144.744-41.29,148.655
	c-48.861,33.711-136.562,57.797-214.71,57.797S90.15,434.237,41.29,400.525C35.621,396.614,0,319.187,0,251.871
	C0,101.365,114.615,53.678,256.001,53.678z"/>
<path style="fill:#E6E1D7;" d="M41.29,400.525c48.86,33.712,136.562,57.798,214.71,57.798s165.849-24.087,214.71-57.797
	c4.177-2.882,24.582-45.703,35.051-94.959l-0.066,0.026c-0.298,1.399-0.567,2.815-0.879,4.203
	c-18.493,16.058-45.181,23.932-72.856,32.026c-9.314,2.726-18.944,5.54-28.411,8.717c-20.613,6.911-37.912,16.935-54.645,26.637
	c-28.026,16.25-54.501,31.598-92.904,31.598s-64.879-15.347-92.903-31.596c-16.734-9.701-34.033-19.725-54.645-26.637
	c-9.468-3.177-19.097-5.992-28.411-8.717c-27.675-8.095-54.363-15.969-72.856-32.026c-0.701-3.105-1.347-6.246-1.966-9.399
	c-0.012-0.007-0.023-0.012-0.035-0.021C15.262,351.785,36.966,397.543,41.29,400.525z"/>
<g>
	<path style="fill:#595966;" d="M256.001,53.678c-130.407,0-237.962,40.641-253.891,165.041
		c31.254-0.658,61.694-15.568,100.29-24.653c74.176-17.462,98.133,10.666,119.467,21.677h68.268
		c21.333-11.011,45.289-39.139,119.467-21.677c38.597,9.086,69.037,23.996,100.29,24.653
		C493.961,94.319,386.408,53.678,256.001,53.678z"/>
	<path style="fill:#595966;" d="M256.001,334.452c20.645,0,44.387-27.871,57.807-41.29c14.396-14.396,49.548-33.032,49.548-33.032
		c-20.645,0-89.807-66.065-107.355-66.065s-86.71,66.065-107.355,66.065c0,0,35.153,18.636,49.548,33.032
		C211.613,306.581,235.355,334.452,256.001,334.452z"/>
</g>
<g>
	<circle style="fill:#464655;" cx="90.839" cy="243.613" r="16.516"/>
	<circle style="fill:#464655;" cx="421.162" cy="243.613" r="16.516"/>
	<path style="fill:#464655;" d="M256.001,334.452c20.645,0,44.387-27.871,57.807-41.29c14.396-14.396,49.548-33.032,49.548-33.032
		s-12.3,0-35.784,0s-39.513,16.516-71.57,16.516s-48.086-16.516-71.57-16.516s-35.786,0-35.786,0s35.153,18.636,49.548,33.032
		C211.613,306.581,235.355,334.452,256.001,334.452z"/>
</g>
<path style="fill:#595966;" d="M511.406,266.766c-7.614,36.732-41.459,46.734-84.083,59.202c-9.468,2.775-19.25,5.637-29.032,8.911
	c-22.194,7.444-40.226,17.904-57.669,28.008c-27.187,15.758-50.662,29.371-84.622,29.371s-57.436-13.612-84.621-29.371
	c-17.443-10.105-35.476-20.565-57.669-28.008c-9.783-3.274-19.564-6.137-29.032-8.911c-42.625-12.468-76.47-22.47-84.083-59.202
	c1.026,14.441,3.43,29.019,6.591,43.031c18.493,16.058,45.181,23.932,72.856,32.026c9.314,2.726,18.944,5.54,28.411,8.717
	c20.613,6.911,37.912,16.935,54.645,26.637c28.023,16.25,54.499,31.597,92.902,31.597s64.88-15.347,92.903-31.596
	c16.734-9.701,34.033-19.725,54.645-26.637c9.468-3.177,19.097-5.992,28.411-8.717c27.675-8.095,54.363-15.969,72.856-32.026
	C507.976,295.786,510.38,281.208,511.406,266.766z"/>
</svg>