<?xml version="1.0" encoding="iso-8859-1"?>
<!-- Uploaded to: SVG Repo, www.svgrepo.com, Generator: SVG Repo Mixer Tools -->
<svg height="800px" width="800px" version="1.1" id="Layer_1" xmlns="http://www.w3.org/2000/svg" xmlns:xlink="http://www.w3.org/1999/xlink" 
	 viewBox="0 0 512 512" xml:space="preserve">
<path style="fill:#FFEBD2;" d="M509.508,43c-67.148,4.797-112.247,37.123-138.488,63.787c-8.037,8.167-19.861,10.917-30.731,7.292
	c-24.708-8.24-52.283-12.609-81.37-12.609c-30.523,0-59.362,4.83-84.983,13.885c-11.192,3.955-23.501,1.202-31.76-7.325
	C116.128,81.137,70.681,47.872,2.477,43c0,0-22.855,114.665,70.289,168.472c-3.888,12.571-5.964,26.049-5.964,40.352
	c0,92.264,86.014,183.765,192.118,183.765s192.118-91.501,192.118-183.765c0-15.406-2.447-29.834-6.938-43.222
	C531.622,153.685,509.508,43,509.508,43z"/>
<circle style="fill:#DECDB6;" cx="258.921" cy="372.939" r="87.706"/>
<path style="fill:#464655;" d="M258.93,469c29.224,0,58.459-12.993,58.459-45.478c0-38.98-43.853-71.464-58.471-71.464
	c-14.618,0-58.471,32.484-58.471,71.464c0,32.484,29.235,45.478,58.459,45.478"/>
<g>
	<circle style="fill:#595966;" cx="175.381" cy="285.233" r="58.471"/>
	<circle style="fill:#595966;" cx="342.451" cy="285.233" r="58.471"/>
</g>
<circle style="fill:#FFD25F;" cx="175.381" cy="285.233" r="33.412"/>
<circle style="fill:#464655;" cx="175.381" cy="285.233" r="8.353"/>
<circle style="fill:#FFD25F;" cx="342.451" cy="285.233" r="33.412"/>
<circle style="fill:#464655;" cx="342.451" cy="285.233" r="8.353"/>
<path style="fill:#595966;" d="M258.919,327c-25.059,0-66.824,33.412-66.824,75.177c0,34.037,38.835,29.24,57.727,21.777
	c5.866-2.317,12.327-2.317,18.193,0c18.892,7.462,57.727,12.26,57.727-21.777C325.743,360.411,283.978,327,258.919,327z"/>
<g>
	<path style="fill:#464655;" d="M242.221,410.529c-3.068,0-6.012-1.688-7.48-4.617l-8.353-16.706
		c-2.064-4.127-0.392-9.144,3.736-11.208c4.127-2.039,9.136-0.392,11.208,3.736l8.353,16.706c2.064,4.127,0.392,9.144-3.736,11.208
		C244.75,410.244,243.477,410.529,242.221,410.529z"/>
	<path style="fill:#464655;" d="M275.613,410.529c3.068,0,6.012-1.688,7.48-4.617l8.353-16.706
		c2.064-4.127,0.392-9.144-3.736-11.208c-4.127-2.039-9.136-0.392-11.208,3.736l-8.353,16.706
		c-2.064,4.127-0.392,9.144,3.736,11.208C273.086,410.244,274.357,410.529,275.613,410.529z"/>
</g>
<g>
	<path style="fill:#595966;" d="M79.151,131.242C49.371,82.69,2.477,43,2.477,43s-22.855,114.665,70.289,168.472
		c2.273-7.349,5.176-14.38,8.653-21.083C91.111,171.7,90.158,149.187,79.151,131.242z"/>
	<path style="fill:#595966;" d="M509.508,43c0,0-43.15,36.532-72.949,82.372c-12.051,18.539-12.634,42.377-1.925,61.722
		c3.776,6.821,6.948,13.997,9.466,21.507C531.622,153.685,509.508,43,509.508,43z"/>
</g>
<path style="fill:#BEAF9B;" d="M397.104,156.259c-10.052-13.419-26.993-30.387-53.202-40.904
	c-25.219-10.12-54.459-13.885-84.983-13.885s-59.764,3.765-84.983,13.885c-26.211,10.517-43.15,27.485-53.202,40.904
	c-5.102,6.81,1.274,16.078,9.477,13.824c67.309-18.496,128.707-18.496,128.707-18.496s61.398,0,128.707,18.496
	C395.83,172.338,402.206,163.069,397.104,156.259z"/>
</svg>