<?xml version="1.0" encoding="iso-8859-1"?>
<!-- Uploaded to: SVG Repo, www.svgrepo.com, Generator: SVG Repo Mixer Tools -->
<svg height="800px" width="800px" version="1.1" id="Layer_1" xmlns="http://www.w3.org/2000/svg" xmlns:xlink="http://www.w3.org/1999/xlink" 
	 viewBox="0 0 511.999 511.999" xml:space="preserve">
<g>
	
		<ellipse transform="matrix(0.5892 -0.808 0.808 0.5892 -89.2781 142.5514)" style="fill:#878791;" cx="95.549" cy="159.074" rx="107.356" ry="88.631"/>
	
		<ellipse transform="matrix(0.5892 0.808 -0.808 0.5892 299.6053 -271.1422)" style="fill:#878791;" cx="416.45" cy="159.067" rx="107.356" ry="88.631"/>
</g>
<path style="fill:#A5A5AD;" d="M437.679,272.518c0,100.338-81.34,181.678-181.678,181.678S74.323,372.856,74.323,272.518
	c0-21.235,3.643-41.619,10.338-60.561c16.422-46.463,51.209-84.251,95.639-104.643c23.044-10.577,48.683-16.474,75.701-16.474
	C356.339,90.84,437.679,172.18,437.679,272.518z"/>
<path style="fill:#C0C0C6;" d="M305.549,396.389c0,18.243-26.745,41.29-49.548,41.29c-22.804,0-49.548-23.047-49.548-41.29
	s26.745-24.774,49.548-24.774C278.805,371.615,305.549,378.146,305.549,396.389z"/>
<path style="fill:#D3D3D7;" d="M322.066,375.744c0,20.523-29.578,37.161-66.065,37.161s-66.065-16.638-66.065-37.161
	s29.578-61.936,66.065-61.936S322.066,355.22,322.066,375.744z"/>
<g>
	<path style="fill:#464655;" d="M256.001,289.034c-18.243,0-33.032,14.789-33.032,33.032v66.065
		c0,18.243,14.789,24.774,33.032,24.774c18.243,0,33.032-6.531,33.032-24.774v-66.065
		C289.033,303.822,274.244,289.034,256.001,289.034z"/>
	<circle style="fill:#464655;" cx="181.678" cy="289.034" r="16.516"/>
	<circle style="fill:#464655;" cx="330.324" cy="289.034" r="16.516"/>
</g>
</svg>