<?xml version="1.0" encoding="iso-8859-1"?>
<!-- Uploaded to: SVG Repo, www.svgrepo.com, Generator: SVG Repo Mixer Tools -->
<svg height="800px" width="800px" version="1.1" id="Layer_1" xmlns="http://www.w3.org/2000/svg" xmlns:xlink="http://www.w3.org/1999/xlink" 
	 viewBox="0 0 512.001 512.001" xml:space="preserve">
<circle style="fill:#B95F4B;" cx="256.001" cy="363.356" r="99.097"/>
<g>
	<path style="fill:#DC6C5D;" d="M319.568,470.711c81.032,0,24.774-92.372,24.774-148.645l-49.548,8.258v140.387H319.568z"/>
	<path style="fill:#DC6C5D;" d="M192.432,470.711c-81.032,0-24.774-92.372-24.774-148.645l49.548,8.258v140.387H192.432z"/>
</g>
<path style="fill:#B95F4B;" d="M355.098,189.936h-99.097h-99.097c-8.258,41.29-16.516,66.065-16.516,123.871
	s90.839,82.581,115.613,82.581c24.774,0,115.613-24.774,115.613-82.581S363.356,231.226,355.098,189.936z"/>
<g>
	<path style="fill:#FF786E;" d="M242.349,371.614c0,41.29,16.516,140.387-8.258,140.387c-16.548,0-49.548-8.258-41.29-66.065
		c8.258-57.807,24.774-66.065,24.774-99.097h24.774C242.349,346.839,242.349,365.42,242.349,371.614z"/>
	<path style="fill:#FF786E;" d="M269.651,371.614c0,41.29-16.516,140.387,8.258,140.387c16.548,0,49.548-8.258,41.29-66.065
		s-24.774-66.065-24.774-99.097h-24.774C269.651,346.839,269.651,365.42,269.651,371.614z"/>
</g>
<path style="fill:#C86E55;" d="M355.098,140.387c-21.054-21.054-33.032-24.774-33.032-57.807c0,0-41.29,49.548-49.548,99.097
	h-33.032c-8.258-49.548-49.548-99.097-49.548-99.097c0,33.032-11.978,36.753-33.032,57.807c-16.516,16.516-26.114,56.467,0,82.581
	c33.032,33.032,41.29,74.323,41.29,74.323h57.807h57.807c0,0,8.258-41.29,41.29-74.323
	C381.212,196.853,371.614,156.904,355.098,140.387z"/>
<path style="fill:#FF786E;" d="M296.013,247.742c-16.516-24.774,0-41.29,0-57.807c0-25.661-15.954-184.171-40.012-189.674V0
	c-0.215,0-0.424,0.106-0.639,0.131C255.148,0.106,254.937,0,254.723,0v0.261c-24.06,5.505-40.012,164.014-40.012,189.675
	c0,16.516,16.516,33.032,0,57.807c-9.999,15-10.918,30-8.253,41.334c1.736,7.386,4.995,13.214,8.253,16.473h40.012h1.278h40.012
	C304.271,297.291,312.529,272.517,296.013,247.742z"/>
<g>
	<ellipse style="fill:#464655;" cx="169.291" cy="247.742" rx="12.387" ry="24.774"/>
	<ellipse style="fill:#464655;" cx="342.71" cy="247.742" rx="12.387" ry="24.774"/>
</g>
<path style="fill:#D7874B;" d="M181.678,305.549v16.516c0,8.258,16.516,41.29,74.323,41.29s74.323-33.032,74.323-41.29v-16.516
	H181.678z"/>
<path style="fill:#FFA25F;" d="M256.001,264.259c-99.097,16.516-74.323,57.807-74.323,57.807
	c24.774-49.548,41.29,82.581,74.323,82.581s49.548-132.129,74.323-82.581C330.323,322.065,355.098,280.775,256.001,264.259z"/>
</svg>