<?xml version="1.0" encoding="iso-8859-1"?>
<!-- Uploaded to: SVG Repo, www.svgrepo.com, Generator: SVG Repo Mixer Tools -->
<svg height="800px" width="800px" version="1.1" id="Layer_1" xmlns="http://www.w3.org/2000/svg" xmlns:xlink="http://www.w3.org/1999/xlink" 
	 viewBox="0 0 512 512" xml:space="preserve">
<path style="fill:#E6E1D7;" d="M512,400.516l-16.516-66.065l-82.581-82.581H256H99.097l-82.581,82.581L0,400.516
	C0,401.892,41.29,384,41.29,384c-24.774,33.032-33.032,74.323-33.032,74.323s41.29-33.032,82.581-41.29
	c0,0-33.032,33.032-33.032,66.065c0,0,33.032-16.516,66.065-16.516l-8.258,24.774c0,0,49.548-16.516,74.323-16.516l16.516,24.774
	L256,474.839l49.548,24.774l16.516-24.774c24.774,0,74.323,16.516,74.323,16.516l-8.258-24.774
	c33.032,0,66.065,16.516,66.065,16.516c0-33.032-33.032-66.065-33.032-66.065c41.29,8.258,82.581,41.29,82.581,41.29
	s-8.258-41.29-33.032-74.323C470.71,384,512,401.892,512,400.516z"/>
<g>
	<path style="fill:#D7D2C8;" d="M148.645,301.419c0,0-8.258,99.097,107.355,123.871L231.226,384
		C231.226,375.742,206.452,317.935,148.645,301.419z"/>
	<path style="fill:#D7D2C8;" d="M363.355,301.419c-57.806,16.516-82.581,74.323-82.581,82.581L256,425.29
		C371.613,400.516,363.355,301.419,363.355,301.419z"/>
	<path style="fill:#D7D2C8;" d="M256,103.226c-173.419,0-214.71,66.065-247.742,132.129l33.032,8.258
		c0,0-41.29,74.323-41.29,156.903c0,0,41.29-132.129,132.129-123.871C222.968,284.903,256,367.484,256,367.484V161.032V103.226z"/>
	<path style="fill:#D7D2C8;" d="M256,103.226c173.419,0,214.71,66.065,247.742,132.129l-33.032,8.258
		c0,0,41.29,74.323,41.29,156.903c0,0-41.29-132.129-132.129-123.871C289.032,284.903,256,367.484,256,367.484V161.032V103.226z"/>
</g>
<g>
	<path style="fill:#DC9B41;" d="M280.766,342.696c-1.247,0-2.514-0.283-3.702-0.883c-4.064-2.047-5.71-6.985-3.676-11.055
		c1.092-2.184,27.551-53.601,97.201-62.307c4.518-0.562,8.652,2.644,9.218,7.17c0.566,4.525-2.645,8.653-7.17,9.219
		c-25.383,3.172-47.279,13.057-65.08,29.379c-13.4,12.285-19.35,23.835-19.409,23.949
		C286.69,341.038,283.781,342.696,280.766,342.696z"/>
	<path style="fill:#DC9B41;" d="M231.232,342.712c-3.022,0-5.932-1.665-7.382-4.546c-0.116-0.225-6.073-11.72-19.407-23.946
		c-17.801-16.322-39.698-26.207-65.08-29.379c-4.525-0.566-7.736-4.694-7.17-9.219c0.566-4.525,4.692-7.741,9.218-7.17
		c69.65,8.707,96.108,60.123,97.201,62.307c2.04,4.079,0.386,9.041-3.693,11.079C233.733,342.43,232.473,342.712,231.232,342.712z"
		/>
</g>
<path style="fill:#E6E1D7;" d="M454.194,128l16.516-8.258c0,0-57.806-49.548-90.839-57.806V45.419c0,0-49.548-16.516-74.323-16.516
	l-16.516-16.516L256,28.903l-33.032-16.516l-16.516,16.516c-24.774,0-74.323,16.516-74.323,16.516v16.516
	c-33.032,8.258-90.839,57.806-90.839,57.806L57.806,128c-16.516,16.516-41.29,57.806-41.29,57.806
	c132.129-49.548,198.194,57.806,198.194,57.806H256h41.29c0,0,66.065-107.355,198.194-57.806
	C495.484,185.806,470.71,144.516,454.194,128z"/>
<path style="fill:#FFCE56;" d="M256,185.806c-27.365,0-49.548,22.183-49.548,49.548v66.065c0,23.532,1.139,69.418,42.637,130.581
	c3.31,4.879,10.511,4.879,13.822,0c41.499-61.162,42.637-107.048,42.637-130.581v-66.065
	C305.548,207.99,283.365,185.806,256,185.806L256,185.806z"/>
<g>
	<ellipse style="fill:#464655;" cx="115.613" cy="206.452" rx="16.516" ry="20.645"/>
	<ellipse style="fill:#464655;" cx="396.387" cy="206.452" rx="16.516" ry="20.645"/>
</g>
<g>
	<circle style="fill:#DC9B41;" cx="231.226" cy="243.613" r="8.258"/>
	<circle style="fill:#DC9B41;" cx="280.774" cy="243.613" r="8.258"/>
</g>
</svg>