<?xml version="1.0" encoding="iso-8859-1"?>
<!-- Uploaded to: SVG Repo, www.svgrepo.com, Generator: SVG Repo Mixer Tools -->
<svg height="800px" width="800px" version="1.1" id="Layer_1" xmlns="http://www.w3.org/2000/svg" xmlns:xlink="http://www.w3.org/1999/xlink" 
	 viewBox="0 0 512 512" xml:space="preserve">
<path style="fill:#FFD296;" d="M388.129,206.452c0,0,41.29,8.258,66.065-8.258c22.55-15.033,54.08-68.781,57.739-107.355
	c1.123-11.84-12.133-19.533-21.912-12.764l-77.118,45.796c0,35.441-33.032,57.806-33.032,57.806L388.129,206.452z"/>
<path style="fill:#CD965F;" d="M386.071,185.298l-5.273-0.84l-0.927-2.78c0,0,33.032-22.366,33.032-57.806l44.655,6.379
	c7.256,1.036,11.508,8.739,8.606,15.469C444.343,196.328,386.071,185.298,386.071,185.298z"/>
<path style="fill:#FFD296;" d="M123.871,206.452c0,0-41.29,8.258-66.065-8.258c-22.55-15.033-54.08-68.781-57.739-107.355
	C-1.056,78.999,12.2,71.305,21.979,78.075l77.118,45.796c0,35.441,33.032,57.806,33.032,57.806L123.871,206.452z"/>
<path style="fill:#FFB964;" d="M346.839,8.258C338.581,0,338.581,0,322.065,0c-16.516,0-24.774,82.581-33.032,90.839
	S256,99.097,256,99.097s-24.774,0-33.032-8.258C214.71,82.581,206.452,0,189.935,0s-16.516,0-24.774,8.258
	c-8.258,8.258-8.258,165.161-8.258,165.161H256h99.097C355.097,173.419,355.097,16.516,346.839,8.258z"/>
<g>
	<path style="fill:#FFD296;" d="M132.129,247.742l20.42,142.943c2.788,19.514,13.213,37.12,28.982,48.948l41.437,31.077V247.742
		H132.129z"/>
	<path style="fill:#FFD296;" d="M379.871,247.742l-20.42,142.943c-2.788,19.514-13.213,37.12-28.982,48.948l-41.437,31.077V247.742
		H379.871z"/>
</g>
<path style="fill:#C3875A;" d="M272.516,512h-33.032c-18.168,0-33.032-14.865-33.032-33.032v-8.258
	c0-18.168,14.865-33.032,33.032-33.032h33.032c18.168,0,33.032,14.865,33.032,33.032v8.258C305.548,497.135,290.684,512,272.516,512
	z"/>
<path style="fill:#FFB964;" d="M404.645,222.968c0-49.548-115.613-107.355-148.645-107.355s-148.645,57.806-148.645,107.355
	c0,57.806,82.581,33.032,99.097,57.806c16.516,24.774-8.258,123.871-8.258,156.903s24.774,57.806,57.806,57.806
	s57.806-24.774,57.806-57.806s-24.774-132.129-8.258-156.903C322.065,256,404.645,280.774,404.645,222.968z"/>
<path style="fill:#CD965F;" d="M256,115.613c-24.775,0-96.009,32.52-130.071,69.685c21.444-3.593,55.862-3.392,72.264,29.412
	C214.71,247.742,239.484,256,256,256s41.29-8.258,57.806-41.29c16.403-32.804,50.819-33.005,72.264-29.412
	C352.008,148.133,280.775,115.613,256,115.613z"/>
<g>
	<circle style="fill:#464655;" cx="148.645" cy="222.978" r="16.516"/>
	<circle style="fill:#464655;" cx="363.355" cy="222.978" r="16.516"/>
</g>
<g>
	<circle style="fill:#C3875A;" cx="227.097" cy="433.548" r="12.387"/>
	<circle style="fill:#C3875A;" cx="284.903" cy="433.548" r="12.387"/>
</g>
<path style="fill:#CD965F;" d="M125.929,185.298l5.273-0.84l0.927-2.78c0,0-33.032-22.366-33.032-57.806l-44.655,6.379
	c-7.256,1.036-11.508,8.739-8.606,15.469C67.657,196.328,125.929,185.298,125.929,185.298z"/>
</svg>