<?xml version="1.0" encoding="iso-8859-1"?>
<!-- Uploaded to: SVG Repo, www.svgrepo.com, Generator: SVG Repo Mixer Tools -->
<svg height="800px" width="800px" version="1.1" id="Layer_1" xmlns="http://www.w3.org/2000/svg" xmlns:xlink="http://www.w3.org/1999/xlink" 
	 viewBox="0 0 512.001 512.001" xml:space="preserve">
<g>
	<path style="fill:#8C7873;" d="M16.516,62.256c0,0-8.258,90.839,33.032,140.387l107.355-74.323
		C156.904,128.321,107.355,53.998,16.516,62.256z"/>
	<path style="fill:#8C7873;" d="M494.81,62.897c0,0,8.258,90.839-33.032,140.387l-107.355-74.323
		C354.423,128.962,403.972,54.639,494.81,62.897z"/>
</g>
<path style="fill:#AA968C;" d="M256.001,87.03C154.895,87.03,24.206,165.052,0,268.708
	c24.205,103.655,154.894,181.678,256.001,181.678s231.794-78.022,256.001-181.678C487.795,165.052,357.106,87.03,256.001,87.03z"/>
<g>
	<path style="fill:#FFFFFF;" d="M107.355,326.514l-41.29-66.065c0,0,74.323-90.839,148.645-33.032L107.355,326.514z"/>
	<path style="fill:#FFFFFF;" d="M404.646,326.514l41.29-66.065c0,0-74.323-90.839-148.645-33.032L404.646,326.514z"/>
</g>
<g>
	<path style="fill:#464655;" d="M256.001,433.87c-24.774,0-140.387-24.774-181.678-123.871c0,0,30.034-84.095,110.593-93.472
		c24.78-2.884,46.31,17.233,46.31,42.18l0,0c0,37.204-18.593,71.945-49.548,92.582l0,0L256.001,433.87z"/>
	<path style="fill:#464655;" d="M256.001,433.87c24.774,0,140.387-24.774,181.678-123.871c0,0-30.034-84.095-110.593-93.472
		c-24.78-2.884-46.31,17.233-46.31,42.18l0,0c0,37.204,18.593,71.945,49.548,92.582l0,0L256.001,433.87z"/>
</g>
<g>
	<ellipse style="fill:#FFFFFF;" cx="256.001" cy="371.934" rx="82.581" ry="61.936"/>
	<circle style="fill:#FFFFFF;" cx="193.064" cy="257.322" r="19.644"/>
	<circle style="fill:#FFFFFF;" cx="318.937" cy="257.322" r="19.644"/>
</g>
<ellipse style="fill:#464655;" cx="256.001" cy="363.676" rx="41.29" ry="28.903"/>
</svg>