<?xml version="1.0" encoding="iso-8859-1"?>
<!-- Uploaded to: SVG Repo, www.svgrepo.com, Generator: SVG Repo Mixer Tools -->
<svg height="800px" width="800px" version="1.1" id="Layer_1" xmlns="http://www.w3.org/2000/svg" xmlns:xlink="http://www.w3.org/1999/xlink" 
	 viewBox="0 0 512.001 512.001" xml:space="preserve">
<g>
	<path style="fill:#937E6D;" d="M289.033,28.42c41.29,1.309,70.194-28.283,107.355-28.283s115.613,141.763,115.613,156.904
		c0,53.678-56.448,38.574-82.581,90.839c-16.516,33.032-49.548,49.548-57.807,49.548L264.259,157.041L289.033,28.42"/>
	<path style="fill:#937E6D;" d="M222.968,28.42c-41.29,1.309-70.194-28.283-107.355-28.283S0,141.901,0,157.041
		c0,53.678,56.448,38.574,82.581,90.839c16.516,33.032,49.548,49.548,57.807,49.548l107.355-140.387L222.968,28.42"/>
</g>
<g>
	<path style="fill:#877364;" d="M148.645,124.009c0,0-8.258,99.097,57.807,132.129V124.009
		C206.452,124.009,148.645,124.009,148.645,124.009z"/>
	<path style="fill:#877364;" d="M363.356,124.009c0,0,8.258,99.097-57.807,132.129V124.009
		C305.549,124.009,363.356,124.009,363.356,124.009z"/>
</g>
<g>
	<path style="fill:#FFEBD2;" d="M182.053,360.767c1.649-13.609,8.238-39.037,32.658-71.597l-24.774-24.774
		c-5.938,13.062-21.446,69.831-13.796,96.957C177.031,364.513,181.657,364.026,182.053,360.767z"/>
	<path style="fill:#FFEBD2;" d="M322.708,264.396l-24.774,24.774c24.407,32.542,31.003,57.96,32.656,71.575
		c0.396,3.264,5.03,3.752,5.921,0.587C344.146,334.198,328.644,277.454,322.708,264.396z"/>
</g>
<path style="fill:#9F8976;" d="M371.614,115.751c0-16.516,8.258-90.839-115.613-90.839s-115.613,74.323-115.613,90.839
	s41.29,16.516,49.548,37.161c0,0,0,48.415,0,57.623c0,9.208-8.258,53.861-8.258,53.861l33.7,33.7
	c4.537,63.173,8.135,168.626,24.106,197.525c10.839,19.613,38.834,26.442,74.323-8.258c14.502-14.179,23.076-30.286,28.468-40.865
	c2.465-4.837,0.495-10.718-4.36-13.146l0,0c-4.32-2.159-9.542-0.875-12.33,3.069c-9.716,13.745-31.411,42.652-36.551,34.427
	c-4.456-7.13,4.932-137.287,7.582-172.744l33.708-33.708c0,0-8.258-44.654-8.258-53.861c0-9.208,0-57.623,0-57.623
	C330.323,132.267,371.614,132.267,371.614,115.751z"/>
<g>
	<circle style="fill:#464655;" cx="177.549" cy="152.909" r="12.387"/>
	<circle style="fill:#464655;" cx="334.452" cy="152.909" r="12.387"/>
</g>
</svg>