<?xml version="1.0" encoding="iso-8859-1"?>
<!-- Uploaded to: SVG Repo, www.svgrepo.com, Generator: SVG Repo Mixer Tools -->
<svg height="800px" width="800px" version="1.1" id="Layer_1" xmlns="http://www.w3.org/2000/svg" xmlns:xlink="http://www.w3.org/1999/xlink" 
	 viewBox="0 0 512 512" xml:space="preserve">
<g>
	<path style="fill:#6B676E;" d="M113.311,67.148c0,0-29.377-41.967-41.967-41.967S54.557,151.082,54.557,151.082L113.311,67.148z"/>
	<path style="fill:#6B676E;" d="M398.689,67.148c0,0,29.377-41.967,41.967-41.967c12.59,0,16.787,125.902,16.787,125.902
		L398.689,67.148z"/>
</g>
<path style="fill:#CCCBCD;" d="M172.06,471.355C74.263,453.71,4.197,401.003,4.197,296.877C4.197,164.798,116.933,0,256,0
	s251.803,164.798,251.803,296.877c0,104.126-70.066,156.833-167.865,174.478"/>
<path style="fill:#9F9CA1;" d="M256,386.098L256,386.098c-78.805,0-142.689-63.884-142.689-142.689V134.295
	c0-23.177,18.79-41.967,41.967-41.967h201.443c23.177,0,41.967,18.79,41.967,41.967V243.41
	C398.689,322.214,334.804,386.098,256,386.098z"/>
<path style="fill:#464655;" d="M256,512L256,512c-55.626,0-100.721-45.095-100.721-100.721v-37.77h201.443v37.77
	C356.721,466.905,311.626,512,256,512z"/>
<path style="fill:#6B676E;" d="M130.098,92.328v67.148c0,18.629,10.142,34.857,25.18,43.568v174.661
	c0,27.814,22.547,50.361,50.361,50.361h100.721c27.814,0,50.361-22.547,50.361-50.361V203.044
	c15.038-8.711,25.18-24.939,25.18-43.568V92.328l-33.575-16.787H281.18L256,83.934l-25.18-8.393h-67.145L130.098,92.328z"/>
<g>
	<circle style="fill:#FF825F;" cx="197.246" cy="117.508" r="16.787"/>
	<circle style="fill:#FF825F;" cx="314.754" cy="117.508" r="16.787"/>
</g>
<g>
	<path style="fill:#464655;" d="M222.426,386.098h16.787c4.635,0,8.393-3.758,8.393-8.393l0,0c0-4.635-3.758-8.393-8.393-8.393
		h-16.787c-4.635,0-8.393,3.758-8.393,8.393l0,0C214.033,382.34,217.791,386.098,222.426,386.098z"/>
	<path style="fill:#464655;" d="M272.787,386.098h16.787c4.635,0,8.393-3.758,8.393-8.393l0,0c0-4.635-3.758-8.393-8.393-8.393
		h-16.787c-4.635,0-8.393,3.758-8.393,8.393l0,0C264.393,382.34,268.151,386.098,272.787,386.098z"/>
	<path style="fill:#464655;" d="M373.508,79.738c-4.844,0-11.049-2.787-18.238-6.016c-10.672-4.804-23.951-10.771-40.516-10.771
		c-16.566,0-29.844,5.967-40.516,10.771c-7.189,3.229-13.394,6.016-18.238,6.016s-11.049-2.787-18.238-6.016
		c-10.672-4.804-23.951-10.771-40.516-10.771s-29.844,5.967-40.516,10.771c-7.189,3.229-13.394,6.016-18.238,6.016
		c-6.951,0-12.59,5.639-12.59,12.59s5.639,12.59,12.59,12.59c10.246,0,19.558-4.188,28.558-8.23
		c9.36-4.205,19.032-8.557,30.196-8.557c25.18,0,33.574,29.377,58.754,29.377s33.574-29.377,58.754-29.377
		c11.164,0,20.836,4.352,30.196,8.557c9,4.041,18.311,8.23,28.558,8.23c6.951,0,12.59-5.639,12.59-12.59
		S380.459,79.738,373.508,79.738z"/>
</g>
</svg>