<?xml version="1.0" encoding="iso-8859-1"?>
<!-- Uploaded to: SVG Repo, www.svgrepo.com, Generator: SVG Repo Mixer Tools -->
<svg height="800px" width="800px" version="1.1" id="Layer_1" xmlns="http://www.w3.org/2000/svg" xmlns:xlink="http://www.w3.org/1999/xlink" 
	 viewBox="0 0 512.001 512.001" xml:space="preserve">
<path style="fill:#C1C95A;" d="M16.516,224.391c0,166.249,137.882,115.798,239.484,115.621
	c101.602,0.176,239.484,50.627,239.484-115.621l-132.13-58.107h-214.71L16.516,224.391z"/>
<path style="fill:#A1C65D;" d="M99.097,273.639h14.136c12.816-7.003,25.392-18.411,36.376-36.893
	c25.234-42.457,79.794-43.74,106.392-43.74c26.598,0,81.158,1.283,106.392,43.74c10.984,18.482,23.56,29.891,36.376,36.893h14.136
	V124.993H99.097V273.639z"/>
<path style="fill:#82C35F;" d="M468.783,80.706C436.047,24.34,320.921,58.929,256.001,58.929S75.953,24.34,43.217,80.706
	c-76.611,131.913-8.184,217.707,24.552,217.707c25.308,0,57.48-8.71,81.84-64.419c25.234-57.709,79.794-59.452,106.392-59.452
	c26.598,0,81.158,1.743,106.392,59.452c24.359,55.709,56.533,64.419,81.84,64.419C476.968,298.413,545.395,212.619,468.783,80.706z"
	/>
<g>
	<path style="fill:#73AF55;" d="M38.122,281.598c1.055,0.106,2.099,0.297,3.168,0.297c31.926,0,57.807-48.064,57.807-107.355
		c0-52.262-20.118-95.755-46.75-105.342c-3.484,3.345-6.582,7.121-9.13,11.507C-13.437,178.256,9.233,250.536,38.122,281.598z"/>
	<path style="fill:#73AF55;" d="M473.882,281.598c-1.055,0.106-2.099,0.297-3.168,0.297c-31.926,0-57.807-48.064-57.807-107.355
		c0-52.262,20.118-95.755,46.75-105.342c3.484,3.345,6.582,7.121,9.13,11.507C525.441,178.256,502.772,250.536,473.882,281.598z"/>
</g>
<ellipse style="fill:#FFCE56;" cx="41.29" cy="170.715" rx="41.29" ry="78.452"/>
<ellipse style="fill:#464655;" cx="41.29" cy="170.715" rx="16.516" ry="45.419"/>
<ellipse style="fill:#FFCE56;" cx="470.711" cy="170.715" rx="41.29" ry="78.452"/>
<ellipse style="fill:#464655;" cx="470.711" cy="170.715" rx="16.516" ry="45.419"/>
<path style="fill:#FF825F;" d="M294.871,449.477l-26.549-26.549c0.011-0.218,0.065-0.424,0.065-0.645V174.541
	c0-6.839-5.548-12.387-12.387-12.387s-12.387,5.548-12.387,12.387v247.742c0,0.221,0.054,0.427,0.065,0.645l-26.549,26.549
	c-3.226,3.226-3.226,8.452,0,11.678c3.226,3.226,8.451,3.226,11.677,0l26.549-26.549c0.218,0.011,0.424,0.065,0.644,0.065
	c0.22,0,0.427-0.054,0.645-0.065l26.549,26.549c1.613,1.613,3.725,2.42,5.838,2.42s4.226-0.806,5.838-2.42
	C298.097,457.929,298.097,452.703,294.871,449.477z"/>
</svg>