<svg enable-background="new 0 0 2500 2500" viewBox="0 0 2500 2500" xmlns="http://www.w3.org/2000/svg"><path clip-rule="evenodd" d="m1250 0c690 0 1250 560 1250 1250s-560 1250-1250 1250-1250-560-1250-1250 560-1250 1250-1250z" fill-rule="evenodd"/><path d="m2008 784c-32-28-68-50-110-57-53-7-107 28-142 53-36 25-107 89-135 114s-100 39-217 110-573 363-573 363h117l-530 274h53l-75 57c43 11 85 4 125-18v18s630-249 751-185l-75 21c7 0 125 7 125 7 7 50 36 96 78 121 71 46 75 75 75 75s-36 14-36 36c68-21 139-21 203 0 0 0-4-21-53-36-50-21-93-53-125-100-28-39-39-89-21-135s78-71 203-135c146-75 182-132 199-178 18-46 53-132 68-174 14-39 39-71 71-100 39-21 82-39 121-53 7 4-71-61-96-78z" fill="#fff"/></svg>