<?xml version="1.0" encoding="UTF-8" standalone="no"?>
<svg
   xmlns:dc="http://purl.org/dc/elements/1.1/"
   xmlns:cc="http://creativecommons.org/ns#"
   xmlns:rdf="http://www.w3.org/1999/02/22-rdf-syntax-ns#"
   xmlns:svg="http://www.w3.org/2000/svg"
   xmlns="http://www.w3.org/2000/svg"
   xmlns:sodipodi="http://sodipodi.sourceforge.net/DTD/sodipodi-0.dtd"
   xmlns:inkscape="http://www.inkscape.org/namespaces/inkscape"
   id="Layer_1"
   data-name="Layer 1"
   viewBox="0 0 644.89482 644.89479"
   version="1.1"
   sodipodi:docname="encointer_logo_facesonly_thick.svg"
   inkscape:version="0.92.3 (2405546, 2018-03-11)"
   width="170.62842mm"
   height="170.62842mm">
  <metadata
     id="metadata1137">
    <rdf:RDF>
      <cc:Work
         rdf:about="">
        <dc:format>image/svg+xml</dc:format>
        <dc:type
           rdf:resource="http://purl.org/dc/dcmitype/StillImage" />
        <dc:title>encointer_logo</dc:title>
      </cc:Work>
    </rdf:RDF>
  </metadata>
  <sodipodi:namedview
     pagecolor="#ffffff"
     bordercolor="#666666"
     borderopacity="1"
     objecttolerance="10"
     gridtolerance="10"
     guidetolerance="10"
     inkscape:pageopacity="0"
     inkscape:pageshadow="2"
     inkscape:window-width="1920"
     inkscape:window-height="1110"
     id="namedview1135"
     showgrid="false"
     inkscape:zoom="0.74665414"
     inkscape:cx="-99.798443"
     inkscape:cy="276.71421"
     inkscape:window-x="0"
     inkscape:window-y="31"
     inkscape:window-maximized="1"
     inkscape:current-layer="Layer_1"
     units="mm"
     fit-margin-top="5"
     fit-margin-left="5"
     fit-margin-bottom="5"
     fit-margin-right="5" />
  <defs
     id="defs1028">
    <style
       id="style1026">.cls-1{fill:#231f20;}</style>
  </defs>
  <title
     id="title1030">encointer_logo</title>
  <g
     id="g1718"
     transform="translate(0,-54.24235)">
    <path
       inkscape:connector-curvature="0"
       style="fill:#231f20;stroke:#000000;stroke-width:3.77952766;stroke-miterlimit:4;stroke-dasharray:none;stroke-opacity:1"
       id="path1106"
       d="m 105.7874,535.64199 5.24,9 c 10.74,-46.34 18.44,-114.91 -4.06,-182.77 -2.2,-6.64 -2.42,-29.23 -2.57,-45.73 -0.1,-10.57 -0.19,-19.7 -0.7,-24.17 -1.27,-11.11 -2.27,-22.43 -3.27,-33.33 -0.08,-1 -0.18,-2 -0.26,-3.06 l -6.109998,10.35 c 0.78,8.89 1.62,17.93 2.66,26.85 0.47,4.1 0.55,13.49 0.65,23.43 0.18,18.84 0.38,40.19 2.929998,47.87 15.13,45.63 18.16,97 9,152.7 -1.03,6.57 -2.24,12.86 -3.51,18.86 z"
       class="cls-1" />
    <path
       inkscape:connector-curvature="0"
       style="fill:#231f20;stroke:#000000;stroke-width:3.77952766;stroke-miterlimit:4;stroke-dasharray:none;stroke-opacity:1"
       id="path1108"
       d="m 71.047402,327.72199 c -1.69,11.3 -2.86,24.48 1.27,36.59 8.57,25.12 16.53,67.34 9.9,131.27 l 6,10.17 c 5.62,-45.83 6.11,-98.65 -9.26,-143.7 -3.65,-10.68 -2.55,-22.83 -1,-33.3 1.79,-12 1.2,-24.29 0.39,-34.72 0,-0.43 -0.07,-0.87 -0.11,-1.31 l -6.3,10.68 a 127.14,127.14 0 0 1 -0.89,24.32 z"
       class="cls-1" />
    <path
       inkscape:connector-curvature="0"
       style="fill:#231f20;stroke:#000000;stroke-width:3.77952766;stroke-miterlimit:4;stroke-dasharray:none;stroke-opacity:1"
       id="path1110"
       d="m 122.8674,286.10199 c 6.7,56 15,125.73 18.38,136.65 0.19,0.64 14.31,63 -17,144.39 l 4.47,7.62 a 315.19,315.19 0 0 0 22.22,-96.27 c 2.11,-32.49 -1.93,-54.17 -3,-57.79 -3.17,-10.32 -11.81,-82.63 -18.12,-135.42 -3.65,-30.53 -6.81,-56.94 -8.23,-65.95 l -5.7,9.65 c 1.64,12.45 4.16,33.56 6.98,57.12 z"
       class="cls-1" />
    <path
       inkscape:connector-curvature="0"
       style="fill:#231f20;stroke:#000000;stroke-width:3.77952766;stroke-miterlimit:4;stroke-dasharray:none;stroke-opacity:1"
       id="path1112"
       d="m 138.4774,213.772 0.8,2.93 c 14.54,52.92 21.36,91.56 18.71,106 -4.76,26 -0.34,42.39 4.78,61.39 5.69,21.13 12.14,45.08 7.87,89.7 -0.32,3.28 -0.66,7.2 -1,11.54 -1.55,17.84 -3.65,42.31 -7.21,57.31 a 159.88,159.88 0 0 1 -22.19,51.6 l 3.93,6.69 a 166.86,166.86 0 0 0 25.06,-56.67 c 3.7,-15.59 5.82,-40.31 7.37,-58.35 0.37,-4.31 0.7,-8.21 1,-11.47 4.4,-45.88 -2.22,-70.48 -8.07,-92.18 -4.9,-18.19 -9.13,-33.9 -4.65,-58.32 3.87,-21.14 -10.15,-77.45 -18.85,-109.13 l -0.8,-2.91 c -1.74,-6.35001 -3.88,-14.16001 -6.25,-22.00001 l -4.86,8.23 c 1.61,5.61 3.1,11.02001 4.36,15.64001 z"
       class="cls-1" />
    <path
       inkscape:connector-curvature="0"
       style="fill:#231f20;stroke:#000000;stroke-width:3.77952766;stroke-miterlimit:4;stroke-dasharray:none;stroke-opacity:1"
       id="path1114"
       d="m 285.4774,421.022 -4.58,-7.6 c -10.81,-17.94 -22,-36.49 -34.27,-53.8 -9.39,-13.23 -10.68,-23.65 -4.46,-36 7.66,-15.15 4.56,-31.29 1.57,-42.1 -7.23,-26.12 -15.47,-51.7 -24,-77.79001 -4.43,-13.58 -16.95,-40.41 -26.44,-54.65 a 73.6,73.6 0 0 0 -19,-19 l -3.57,6 a 66.46,66.46 0 0 1 16.79,16.86 c 9.05,13.56 21.41,40.05 25.62,52.94 8.49,26.00001 16.71,51.51001 23.89,77.48001 4.27,15.42 3.93,27.2 -1.07,37.09 -7.37,14.59 -5.83,27.9 5,43.15 12.13,17.1 23.24,35.53 34,53.36 l 4.59,7.61 c 4.68,7.74 3.06,16.51 -4,21.82 a 60.09,60.09 0 0 1 -16.37,8.54 c -11,3.81 -15.18,7.77 -10.76,21.23 4.69,14.29 2.35,22.13 -8.35,28 l -3.32,1.81 2.07,3.17 c 5.23,8 6.9,12.39 3,17.17 -7.88,9.65 -10,19.94 -6.83,33.38 4.69,19.95 0.86,34.82 -11.7,45.45 a 40.76,40.76 0 0 1 -21.88,9.29 c -0.75,0.08 -4.66,0.17 -10.12,0.26 a 41.15,41.15 0 0 0 9.23,-6 c 18.62,-16.27 18.28,-35.21 18,-49 0,-2.07 -0.08,-4 0,-5.81 a 57.6,57.6 0 0 1 6.41,-25.82 c 3.69,-7.12 2.75,-14.23 1.23,-20.51 6.21,-7.59 8.8,-16.89 8.14,-29.08 a 121.57,121.57 0 0 0 -3.73,-13.41 c -2.6,-5.2 -1.14,-8.25 2.41,-14.65 7.1,-12.81 17.84,-32.17 -13.62,-88.62 q -1.37,-2.46 -2.51,-4.48 c -3.48,-6.16 -5.39,-9.56 -5.62,-11.86 -0.19,-1.95 0.83,-4.07 3.34,-9.1 1.42,-2.84 3.17,-6.36 5.28,-11.11 2.57,-4.18 7.3,-16.71 -1.91,-45 -3.54,-10.89 -6.55,-21.62 -9.45,-32 -3.71,-13.28 -7.55,-27 -12.49,-40.88001 -4.94,-13.88 -16.16,-39 -24.29,-52.88 -0.3,-0.52 -0.61,-1 -0.91,-1.52 a 70.93,70.93 0 0 0 -5.44,-7.6 l -3.93,6.41 c 1.13,1.5 2.24,3.11 3.3,4.82 0.28,0.46 0.56,0.92 0.83,1.39 7.94,13.52 18.88,38.09 23.74,51.69001 4.86,13.6 8.49,26.64 12.34,40.41 2.92,10.45 5.94,21.25 9.53,32.28 8.85,27.22 3.69,37.5 2.57,39.29 a 3.82,3.82 0 0 0 -0.3,0.55 c -2.09,4.71 -3.84,8.21 -5.24,11 -5.71,11.43 -5.94,12.65 2.44,27.51 q 1.14,2 2.5,4.45 c 29.57,53.06 20.34,69.69 13.6,81.83 -3.53,6.38 -6.87,12.4 -2.6,21.05 0.5,1.36 2.77,9.47 3.07,10.95 0.56,10.9 -1.85,18.94 -7.59,25.29 l -1.19,1.42 0.48,1.83 c 1.85,7.12 2.41,12.23 -0.22,17.32 a 64.28,64.28 0 0 0 -7.26,28.89 c 0,1.91 0,3.93 0,6.07 0.23,13.16 0.53,29.53 -15.65,43.66 -5.28,4.62 -12.39,7.22 -19.29,9.34 a 48.41,48.41 0 0 1 -7.47,1.35 l -0.46,0.05 -0.42,0.17 c -0.59,0.23 -1.3,0.46 -2.09,0.68 l -4.73,0.06 c 4.73,-2.18 9.27,-4.93 12.18,-8.58 12.82,-16.14 17.28,-37.56 19.95,-50.36 0.55,-2.64 1,-4.91 1.46,-6.6 6.39,-24.67 8.31,-73.4 8.52,-79.21 14.62,-45.09 -0.74,-81.43 -9.94,-103.18 -3.22,-7.62 -6,-14.2 -6.18,-18.12 -0.38,-8.71 1.79,-16.69 3.9,-24.4 2.2,-8.07 4.28,-15.7 2.75,-22.78 -1.22,-5.59 -2.54,-12.1 -3.93,-19 -4.85,-23.93 -10.89,-53.71 -18,-72 -3.81,-9.82001 -11.94,-29.81001 -19.06,-44.80001 l -4.31,7.29 c 6.49,14.12 13.43,31.22 16.86,40.00001 6.91,17.78 12.91,47.26 17.72,70.9 1.4,6.92 2.73,13.46 3.95,19.08 1.17,5.42 -0.61,11.93 -2.67,19.47 -2.09,7.81 -4.56,16.75 -4.09,26.55 0.23,5.17 3.1,11.95 6.73,20.53 9.41,22.27 23.64,55.94 9.58,98.75 l -0.16,0.48 v 0.5 c 0,0.53 -1.85,53.23 -8.32,78.18 -0.48,1.86 -1,4.21 -1.53,6.93 -2.54,12.2 -6.8,32.61 -18.58,47.44 -3.46,4.36 -11.41,7.52 -17.5,9.73 l 7.07,12 c 3.46,-0.57 6.72,-1.2 9.38,-1.9 15.21,-0.17 33.43,-0.42 35.15,-0.64 a 47.56,47.56 0 0 0 25.53,-10.89 c 14.56,-12.32 19.27,-29.95 14,-52.39 -2.68,-11.42 -1.11,-19.35 5.44,-27.36 6.55,-8.01 3.12,-16.24 -0.61,-22.37 14.22,-9.62 12.08,-23.29 8.45,-34.35 -2.9,-8.85 -1.95,-9.56 6.4,-12.44 a 67.24,67.24 0 0 0 18.28,-9.56 c 9.88,-7.44 12.27,-20.2 5.74,-31 z"
       class="cls-1" />
    <path
       inkscape:connector-curvature="0"
       style="fill:#231f20;stroke:#000000;stroke-width:3.77952766;stroke-miterlimit:4;stroke-dasharray:none;stroke-opacity:1"
       id="path1116"
       d="m 53.657402,446.98199 7,11.89 c 0.31,-39.15 -2.91,-71.91 -9.68,-96.36 -1.81,-6.55 -1.8,-13.76 -1.31,-21.38 l -7.16,12.12 a 52.06,52.06 0 0 0 1.74,11.12 c 5.91,21.39 9.04,49.38 9.41,82.61 z"
       class="cls-1" />
    <path
       inkscape:connector-curvature="0"
       style="fill:#231f20;stroke:#000000;stroke-width:3.77952766;stroke-miterlimit:4;stroke-dasharray:none;stroke-opacity:1"
       id="path1118"
       d="m 27.707402,402.82199 c 0,-7.19 0.06,-15.5 0.08,-24.66 l -7,11.9 v 0.94 z"
       class="cls-1" />
    <path
       inkscape:connector-curvature="0"
       style="fill:#231f20;stroke:#000000;stroke-width:3.77952766;stroke-miterlimit:4;stroke-dasharray:none;stroke-opacity:1"
       id="path1120"
       d="m 539.1074,535.64199 -5.24,9 c -10.74,-46.38 -18.44,-114.95 4.06,-182.81 2.2,-6.64 2.42,-29.23 2.57,-45.73 0.1,-10.57 0.19,-19.7 0.7,-24.17 1.29,-11.07 2.28,-22.39 3.23,-33.34 0.09,-1 0.18,-2 0.27,-3.06 l 6.11,10.35 c -0.79,8.89 -1.62,17.93 -2.67,26.85 -0.46,4.1 -0.55,13.49 -0.65,23.43 -0.18,18.84 -0.38,40.19 -2.93,47.87 -15.13,45.63 -18.16,97 -9,152.7 1.07,6.62 2.28,12.91 3.55,18.91 z"
       class="cls-1" />
    <path
       inkscape:connector-curvature="0"
       style="fill:#231f20;stroke:#000000;stroke-width:3.77952766;stroke-miterlimit:4;stroke-dasharray:none;stroke-opacity:1"
       id="path1122"
       d="m 573.8474,327.72199 c 1.69,11.3 2.86,24.48 -1.27,36.59 -8.57,25.12 -16.53,67.34 -9.9,131.27 l -6,10.17 c -5.62,-45.83 -6.1,-98.65 9.27,-143.7 3.64,-10.68 2.54,-22.83 1,-33.3 -1.78,-12 -1.2,-24.29 -0.39,-34.72 0,-0.43 0.07,-0.87 0.11,-1.31 l 6.3,10.68 a 127.14,127.14 0 0 0 0.88,24.32 z"
       class="cls-1" />
    <path
       inkscape:connector-curvature="0"
       style="fill:#231f20;stroke:#000000;stroke-width:3.77952766;stroke-miterlimit:4;stroke-dasharray:none;stroke-opacity:1"
       id="path1124"
       d="m 522.0274,286.10199 c -6.69,56 -15,125.73 -18.38,136.65 -0.19,0.64 -14.31,63 17,144.39 l -4.47,7.62 a 315.19,315.19 0 0 1 -22.22,-96.27 c -2.11,-32.49 1.93,-54.17 3,-57.79 3.17,-10.32 11.81,-82.63 18.12,-135.42 3.65,-30.53 6.81,-56.94 8.23,-65.95 l 5.7,9.65 c -1.64,12.45 -4.16,33.56 -6.98,57.12 z"
       class="cls-1" />
    <path
       inkscape:connector-curvature="0"
       style="fill:#231f20;stroke:#000000;stroke-width:3.77952766;stroke-miterlimit:4;stroke-dasharray:none;stroke-opacity:1"
       id="path1126"
       d="m 506.4274,213.772 -0.8,2.93 c -14.54,52.92 -21.36,91.56 -18.71,106 4.76,26 0.34,42.39 -4.78,61.39 -5.69,21.13 -12.14,45.08 -7.86,89.7 0.31,3.28 0.65,7.2 1,11.54 1.53,17.83 3.62,42.25 7.2,57.33 a 159.88,159.88 0 0 0 22.19,51.6 l -3.93,6.69 a 166.86,166.86 0 0 1 -25.06,-56.67 c -3.7,-15.59 -5.82,-40.31 -7.36,-58.35 -0.37,-4.31 -0.71,-8.21 -1,-11.47 -4.4,-45.88 2.23,-70.48 8.07,-92.18 4.9,-18.19 9.13,-33.9 4.65,-58.32 -3.87,-21.14 10.15,-77.45 18.85,-109.13 l 0.8,-2.91 c 1.74,-6.35001 3.88,-14.16001 6.25,-22.00001 l 4.86,8.23 c -1.63,5.59 -3.11,11.00001 -4.37,15.62001 z"
       class="cls-1" />
    <path
       inkscape:connector-curvature="0"
       style="fill:#231f20;stroke:#000000;stroke-width:3.77952766;stroke-miterlimit:4;stroke-dasharray:none;stroke-opacity:1"
       id="path1128"
       d="m 359.4274,421.022 4.59,-7.6 c 10.8,-17.94 22,-36.49 34.26,-53.8 9.39,-13.23 10.68,-23.65 4.46,-36 -7.65,-15.15 -4.56,-31.29 -1.57,-42.1 7.23,-26.12 15.47,-51.7 24,-77.79001 4.43,-13.58 16.95,-40.41 26.44,-54.65 a 73.6,73.6 0 0 1 19,-19 l 3.57,6 a 66.46,66.46 0 0 0 -16.75,16.92 c -9.05,13.56 -21.41,40.05 -25.62,52.94 -8.49,26.00001 -16.7,51.51001 -23.89,77.48001 -4.27,15.42 -3.93,27.2 1.07,37.09 7.37,14.59 5.83,27.9 -5,43.15 -12.13,17.1 -23.24,35.53 -34,53.36 l -4.56,7.62 c -4.68,7.74 -3.06,16.51 4,21.82 a 59.88,59.88 0 0 0 16.36,8.54 c 11,3.81 15.18,7.77 10.76,21.23 -4.69,14.29 -2.35,22.13 8.35,28 l 3.32,1.81 -2.07,3.17 c -5.23,8 -6.9,12.39 -3,17.17 7.88,9.65 10,19.94 6.83,33.38 -4.69,19.95 -0.86,34.82 11.7,45.45 a 40.76,40.76 0 0 0 21.88,9.29 c 0.76,0.08 4.66,0.17 10.12,0.26 a 41.37,41.37 0 0 1 -9.23,-6 c -18.62,-16.27 -18.28,-35.21 -18,-49 0,-2.07 0.07,-4 0,-5.81 a 57.6,57.6 0 0 0 -6.41,-25.82 c -3.69,-7.12 -2.74,-14.23 -1.23,-20.51 -6.21,-7.59 -8.8,-16.89 -8.14,-29.08 a 119.42,119.42 0 0 1 3.76,-13.48 c 2.6,-5.2 1.14,-8.25 -2.41,-14.65 -7.11,-12.81 -17.85,-32.17 13.61,-88.62 q 1.37,-2.46 2.51,-4.48 c 3.48,-6.16 5.39,-9.56 5.62,-11.86 0.19,-1.95 -0.82,-4.07 -3.34,-9.1 -1.41,-2.84 -3.17,-6.36 -5.28,-11.11 -2.57,-4.18 -7.3,-16.71 1.91,-45 3.55,-10.89 6.55,-21.62 9.45,-32 3.71,-13.28 7.55,-27 12.49,-40.88001 4.94,-13.88 16.16,-39 24.29,-52.88 0.31,-0.52 0.61,-1 0.92,-1.52 a 70.89,70.89 0 0 1 5.43,-7.6 l 3.8,6.41 c -1.13,1.5 -2.24,3.11 -3.3,4.82 -0.28,0.46 -0.56,0.92 -0.83,1.39 -7.94,13.52 -18.87,38.09 -23.74,51.66001 -4.87,13.57 -8.49,26.64 -12.34,40.41 -2.92,10.45 -5.94,21.25 -9.53,32.28 -8.85,27.22 -3.69,37.5 -2.57,39.29 0.18,0.28 0.27,0.48 0.31,0.55 2.08,4.71 3.83,8.21 5.24,11 5.7,11.43 5.93,12.65 -2.45,27.51 q -1.14,2 -2.5,4.45 c -29.57,53.06 -20.34,69.69 -13.6,81.83 3.53,6.38 6.88,12.4 2.6,21.05 -0.5,1.36 -2.77,9.47 -3.07,10.95 -0.56,10.9 1.85,18.94 7.6,25.29 l 1.26,1.39 -0.47,1.83 c -1.86,7.12 -2.42,12.23 0.22,17.32 a 64.54,64.54 0 0 1 7.17,28.95 c 0,1.91 0,3.93 0,6.07 -0.23,13.16 -0.53,29.53 15.65,43.66 5.28,4.62 12.39,7.22 19.29,9.34 a 48.41,48.41 0 0 0 7.47,1.35 l 0.46,0.05 0.43,0.17 c 0.59,0.23 1.29,0.46 2.08,0.68 l 4.74,0.06 c -4.74,-2.18 -9.28,-4.93 -12.18,-8.58 -12.83,-16.14 -17.29,-37.56 -20,-50.36 -0.54,-2.64 -1,-4.91 -1.46,-6.6 -6.39,-24.67 -8.31,-73.4 -8.52,-79.21 -14.62,-45.09 0.75,-81.43 9.94,-103.18 3.22,-7.62 6,-14.2 6.18,-18.12 0.39,-8.71 -1.79,-16.69 -3.89,-24.4 -2.21,-8.07 -4.28,-15.7 -2.76,-22.78 1.22,-5.59 2.54,-12.1 3.93,-19 4.85,-23.93 10.89,-53.71 18,-72 3.81,-9.82001 11.94,-29.81001 19.06,-44.80001 l 4.31,7.29 c -6.49,14.12 -13.43,31.22 -16.85,40.00001 -6.88,17.78 -12.88,47.26 -17.65,70.9 -1.4,6.92 -2.72,13.46 -4,19.08 -1.16,5.42 0.61,11.93 2.67,19.47 2.14,7.85 4.57,16.75 4.13,26.55 -0.23,5.17 -3.1,11.95 -6.72,20.53 -9.42,22.27 -23.65,55.94 -9.58,98.75 l 0.15,0.48 v 0.5 c 0,0.53 1.85,53.23 8.32,78.18 0.48,1.86 1,4.21 1.54,6.93 2.54,12.2 6.79,32.61 18.58,47.44 3.46,4.36 11.4,7.52 17.49,9.73 l -7.06,12 c -3.47,-0.57 -6.73,-1.2 -9.39,-1.9 -15.21,-0.17 -33.43,-0.42 -35.15,-0.64 a 47.56,47.56 0 0 1 -25.53,-10.89 c -14.56,-12.32 -19.27,-29.95 -14,-52.39 2.68,-11.42 1.11,-19.35 -5.44,-27.36 -6.55,-8.01 -3.12,-16.24 0.61,-22.37 -14.22,-9.62 -12.07,-23.29 -8.45,-34.35 2.91,-8.85 1.95,-9.56 -6.4,-12.44 a 67.24,67.24 0 0 1 -18.28,-9.56 c -9.87,-7.44 -12.26,-20.2 -5.72,-31 z"
       class="cls-1" />
    <path
       inkscape:connector-curvature="0"
       style="fill:#231f20;stroke:#000000;stroke-width:3.77952766;stroke-miterlimit:4;stroke-dasharray:none;stroke-opacity:1"
       id="path1130"
       d="m 591.2374,446.98199 -7,11.89 c -0.31,-39.15 2.91,-71.91 9.68,-96.36 1.81,-6.55 1.8,-13.76 1.31,-21.38 l 7.2,12.12 a 52.68,52.68 0 0 1 -1.73,11.12 c -5.96,21.39 -9.09,49.38 -9.46,82.61 z"
       class="cls-1" />
    <path
       inkscape:connector-curvature="0"
       style="fill:#231f20;stroke:#000000;stroke-width:3.77952766;stroke-miterlimit:4;stroke-dasharray:none;stroke-opacity:1"
       id="path1132"
       d="m 617.1874,402.82199 c 0,-7.19 -0.06,-15.5 -0.08,-24.66 l 7,11.9 c 0,0.31 0,0.62 0,0.94 z"
       class="cls-1" />
  </g>
</svg>
