<?xml version="1.0" encoding="UTF-8"?>
<svg id="Layer_1" width="170.63mm" height="170.63mm" data-name="Layer 1" version="1.1" viewBox="0 0 644.89 644.89" xmlns="http://www.w3.org/2000/svg" xmlns:cc="http://creativecommons.org/ns#" xmlns:dc="http://purl.org/dc/elements/1.1/" xmlns:rdf="http://www.w3.org/1999/02/22-rdf-syntax-ns#">
 <metadata id="metadata1137">
  <rdf:RDF>
   <cc:Work rdf:about="">
    <dc:format>image/svg+xml</dc:format>
    <dc:type rdf:resource="http://purl.org/dc/dcmitype/StillImage"/>
    <dc:title>encointer_logo</dc:title>
   </cc:Work>
  </rdf:RDF>
 </metadata>
 <title id="title1030">encointer_logo</title>
 <g id="g1718" transform="translate(0 -54.242)" fill="#231f20" stroke="#000" stroke-width="3.7795">
  <path id="path1106" class="cls-1" d="m105.79 535.64 5.24 9c10.74-46.34 18.44-114.91-4.06-182.77-2.2-6.64-2.42-29.23-2.57-45.73-0.1-10.57-0.19-19.7-0.7-24.17-1.27-11.11-2.27-22.43-3.27-33.33-0.08-1-0.18-2-0.26-3.06l-6.11 10.35c0.78 8.89 1.62 17.93 2.66 26.85 0.47 4.1 0.55 13.49 0.65 23.43 0.18 18.84 0.38 40.19 2.93 47.87 15.13 45.63 18.16 97 9 152.7-1.03 6.57-2.24 12.86-3.51 18.86z"/>
  <path id="path1108" class="cls-1" d="m71.047 327.72c-1.69 11.3-2.86 24.48 1.27 36.59 8.57 25.12 16.53 67.34 9.9 131.27l6 10.17c5.62-45.83 6.11-98.65-9.26-143.7-3.65-10.68-2.55-22.83-1-33.3 1.79-12 1.2-24.29 0.39-34.72 0-0.43-0.07-0.87-0.11-1.31l-6.3 10.68a127.14 127.14 0 0 1-0.89 24.32z"/>
  <path id="path1110" class="cls-1" d="m122.87 286.1c6.7 56 15 125.73 18.38 136.65 0.19 0.64 14.31 63-17 144.39l4.47 7.62a315.19 315.19 0 0 0 22.22-96.27c2.11-32.49-1.93-54.17-3-57.79-3.17-10.32-11.81-82.63-18.12-135.42-3.65-30.53-6.81-56.94-8.23-65.95l-5.7 9.65c1.64 12.45 4.16 33.56 6.98 57.12z"/>
  <path id="path1112" class="cls-1" d="m138.48 213.77 0.8 2.93c14.54 52.92 21.36 91.56 18.71 106-4.76 26-0.34 42.39 4.78 61.39 5.69 21.13 12.14 45.08 7.87 89.7-0.32 3.28-0.66 7.2-1 11.54-1.55 17.84-3.65 42.31-7.21 57.31a159.88 159.88 0 0 1-22.19 51.6l3.93 6.69a166.86 166.86 0 0 0 25.06-56.67c3.7-15.59 5.82-40.31 7.37-58.35 0.37-4.31 0.7-8.21 1-11.47 4.4-45.88-2.22-70.48-8.07-92.18-4.9-18.19-9.13-33.9-4.65-58.32 3.87-21.14-10.15-77.45-18.85-109.13l-0.8-2.91c-1.74-6.35-3.88-14.16-6.25-22l-4.86 8.23c1.61 5.61 3.1 11.02 4.36 15.64z"/>
  <path id="path1114" class="cls-1" d="m285.48 421.02-4.58-7.6c-10.81-17.94-22-36.49-34.27-53.8-9.39-13.23-10.68-23.65-4.46-36 7.66-15.15 4.56-31.29 1.57-42.1-7.23-26.12-15.47-51.7-24-77.79-4.43-13.58-16.95-40.41-26.44-54.65a73.6 73.6 0 0 0-19-19l-3.57 6a66.46 66.46 0 0 1 16.79 16.86c9.05 13.56 21.41 40.05 25.62 52.94 8.49 26 16.71 51.51 23.89 77.48 4.27 15.42 3.93 27.2-1.07 37.09-7.37 14.59-5.83 27.9 5 43.15 12.13 17.1 23.24 35.53 34 53.36l4.59 7.61c4.68 7.74 3.06 16.51-4 21.82a60.09 60.09 0 0 1-16.37 8.54c-11 3.81-15.18 7.77-10.76 21.23 4.69 14.29 2.35 22.13-8.35 28l-3.32 1.81 2.07 3.17c5.23 8 6.9 12.39 3 17.17-7.88 9.65-10 19.94-6.83 33.38 4.69 19.95 0.86 34.82-11.7 45.45a40.76 40.76 0 0 1-21.88 9.29c-0.75 0.08-4.66 0.17-10.12 0.26a41.15 41.15 0 0 0 9.23-6c18.62-16.27 18.28-35.21 18-49 0-2.07-0.08-4 0-5.81a57.6 57.6 0 0 1 6.41-25.82c3.69-7.12 2.75-14.23 1.23-20.51 6.21-7.59 8.8-16.89 8.14-29.08a121.57 121.57 0 0 0-3.73-13.41c-2.6-5.2-1.14-8.25 2.41-14.65 7.1-12.81 17.84-32.17-13.62-88.62q-1.37-2.46-2.51-4.48c-3.48-6.16-5.39-9.56-5.62-11.86-0.19-1.95 0.83-4.07 3.34-9.1 1.42-2.84 3.17-6.36 5.28-11.11 2.57-4.18 7.3-16.71-1.91-45-3.54-10.89-6.55-21.62-9.45-32-3.71-13.28-7.55-27-12.49-40.88-4.94-13.88-16.16-39-24.29-52.88-0.3-0.52-0.61-1-0.91-1.52a70.93 70.93 0 0 0-5.44-7.6l-3.93 6.41c1.13 1.5 2.24 3.11 3.3 4.82 0.28 0.46 0.56 0.92 0.83 1.39 7.94 13.52 18.88 38.09 23.74 51.69 4.86 13.6 8.49 26.64 12.34 40.41 2.92 10.45 5.94 21.25 9.53 32.28 8.85 27.22 3.69 37.5 2.57 39.29a3.82 3.82 0 0 0-0.3 0.55c-2.09 4.71-3.84 8.21-5.24 11-5.71 11.43-5.94 12.65 2.44 27.51q1.14 2 2.5 4.45c29.57 53.06 20.34 69.69 13.6 81.83-3.53 6.38-6.87 12.4-2.6 21.05 0.5 1.36 2.77 9.47 3.07 10.95 0.56 10.9-1.85 18.94-7.59 25.29l-1.19 1.42 0.48 1.83c1.85 7.12 2.41 12.23-0.22 17.32a64.28 64.28 0 0 0-7.26 28.89v6.07c0.23 13.16 0.53 29.53-15.65 43.66-5.28 4.62-12.39 7.22-19.29 9.34a48.41 48.41 0 0 1-7.47 1.35l-0.46 0.05-0.42 0.17c-0.59 0.23-1.3 0.46-2.09 0.68l-4.73 0.06c4.73-2.18 9.27-4.93 12.18-8.58 12.82-16.14 17.28-37.56 19.95-50.36 0.55-2.64 1-4.91 1.46-6.6 6.39-24.67 8.31-73.4 8.52-79.21 14.62-45.09-0.74-81.43-9.94-103.18-3.22-7.62-6-14.2-6.18-18.12-0.38-8.71 1.79-16.69 3.9-24.4 2.2-8.07 4.28-15.7 2.75-22.78-1.22-5.59-2.54-12.1-3.93-19-4.85-23.93-10.89-53.71-18-72-3.81-9.82-11.94-29.81-19.06-44.8l-4.31 7.29c6.49 14.12 13.43 31.22 16.86 40 6.91 17.78 12.91 47.26 17.72 70.9 1.4 6.92 2.73 13.46 3.95 19.08 1.17 5.42-0.61 11.93-2.67 19.47-2.09 7.81-4.56 16.75-4.09 26.55 0.23 5.17 3.1 11.95 6.73 20.53 9.41 22.27 23.64 55.94 9.58 98.75l-0.16 0.48v0.5c0 0.53-1.85 53.23-8.32 78.18-0.48 1.86-1 4.21-1.53 6.93-2.54 12.2-6.8 32.61-18.58 47.44-3.46 4.36-11.41 7.52-17.5 9.73l7.07 12c3.46-0.57 6.72-1.2 9.38-1.9 15.21-0.17 33.43-0.42 35.15-0.64a47.56 47.56 0 0 0 25.53-10.89c14.56-12.32 19.27-29.95 14-52.39-2.68-11.42-1.11-19.35 5.44-27.36s3.12-16.24-0.61-22.37c14.22-9.62 12.08-23.29 8.45-34.35-2.9-8.85-1.95-9.56 6.4-12.44a67.24 67.24 0 0 0 18.28-9.56c9.88-7.44 12.27-20.2 5.74-31z"/>
  <path id="path1116" class="cls-1" d="m53.657 446.98 7 11.89c0.31-39.15-2.91-71.91-9.68-96.36-1.81-6.55-1.8-13.76-1.31-21.38l-7.16 12.12a52.06 52.06 0 0 0 1.74 11.12c5.91 21.39 9.04 49.38 9.41 82.61z"/>
  <path id="path1118" class="cls-1" d="m27.707 402.82c0-7.19 0.06-15.5 0.08-24.66l-7 11.9v0.94z"/>
  <path id="path1120" class="cls-1" d="m539.11 535.64-5.24 9c-10.74-46.38-18.44-114.95 4.06-182.81 2.2-6.64 2.42-29.23 2.57-45.73 0.1-10.57 0.19-19.7 0.7-24.17 1.29-11.07 2.28-22.39 3.23-33.34 0.09-1 0.18-2 0.27-3.06l6.11 10.35c-0.79 8.89-1.62 17.93-2.67 26.85-0.46 4.1-0.55 13.49-0.65 23.43-0.18 18.84-0.38 40.19-2.93 47.87-15.13 45.63-18.16 97-9 152.7 1.07 6.62 2.28 12.91 3.55 18.91z"/>
  <path id="path1122" class="cls-1" d="m573.85 327.72c1.69 11.3 2.86 24.48-1.27 36.59-8.57 25.12-16.53 67.34-9.9 131.27l-6 10.17c-5.62-45.83-6.1-98.65 9.27-143.7 3.64-10.68 2.54-22.83 1-33.3-1.78-12-1.2-24.29-0.39-34.72 0-0.43 0.07-0.87 0.11-1.31l6.3 10.68a127.14 127.14 0 0 0 0.88 24.32z"/>
  <path id="path1124" class="cls-1" d="m522.03 286.1c-6.69 56-15 125.73-18.38 136.65-0.19 0.64-14.31 63 17 144.39l-4.47 7.62a315.19 315.19 0 0 1-22.22-96.27c-2.11-32.49 1.93-54.17 3-57.79 3.17-10.32 11.81-82.63 18.12-135.42 3.65-30.53 6.81-56.94 8.23-65.95l5.7 9.65c-1.64 12.45-4.16 33.56-6.98 57.12z"/>
  <path id="path1126" class="cls-1" d="m506.43 213.77-0.8 2.93c-14.54 52.92-21.36 91.56-18.71 106 4.76 26 0.34 42.39-4.78 61.39-5.69 21.13-12.14 45.08-7.86 89.7 0.31 3.28 0.65 7.2 1 11.54 1.53 17.83 3.62 42.25 7.2 57.33a159.88 159.88 0 0 0 22.19 51.6l-3.93 6.69a166.86 166.86 0 0 1-25.06-56.67c-3.7-15.59-5.82-40.31-7.36-58.35-0.37-4.31-0.71-8.21-1-11.47-4.4-45.88 2.23-70.48 8.07-92.18 4.9-18.19 9.13-33.9 4.65-58.32-3.87-21.14 10.15-77.45 18.85-109.13l0.8-2.91c1.74-6.35 3.88-14.16 6.25-22l4.86 8.23c-1.63 5.59-3.11 11-4.37 15.62z"/>
  <path id="path1128" class="cls-1" d="m359.43 421.02 4.59-7.6c10.8-17.94 22-36.49 34.26-53.8 9.39-13.23 10.68-23.65 4.46-36-7.65-15.15-4.56-31.29-1.57-42.1 7.23-26.12 15.47-51.7 24-77.79 4.43-13.58 16.95-40.41 26.44-54.65a73.6 73.6 0 0 1 19-19l3.57 6a66.46 66.46 0 0 0-16.75 16.92c-9.05 13.56-21.41 40.05-25.62 52.94-8.49 26-16.7 51.51-23.89 77.48-4.27 15.42-3.93 27.2 1.07 37.09 7.37 14.59 5.83 27.9-5 43.15-12.13 17.1-23.24 35.53-34 53.36l-4.56 7.62c-4.68 7.74-3.06 16.51 4 21.82a59.88 59.88 0 0 0 16.36 8.54c11 3.81 15.18 7.77 10.76 21.23-4.69 14.29-2.35 22.13 8.35 28l3.32 1.81-2.07 3.17c-5.23 8-6.9 12.39-3 17.17 7.88 9.65 10 19.94 6.83 33.38-4.69 19.95-0.86 34.82 11.7 45.45a40.76 40.76 0 0 0 21.88 9.29c0.76 0.08 4.66 0.17 10.12 0.26a41.37 41.37 0 0 1-9.23-6c-18.62-16.27-18.28-35.21-18-49 0-2.07 0.07-4 0-5.81a57.6 57.6 0 0 0-6.41-25.82c-3.69-7.12-2.74-14.23-1.23-20.51-6.21-7.59-8.8-16.89-8.14-29.08a119.42 119.42 0 0 1 3.76-13.48c2.6-5.2 1.14-8.25-2.41-14.65-7.11-12.81-17.85-32.17 13.61-88.62q1.37-2.46 2.51-4.48c3.48-6.16 5.39-9.56 5.62-11.86 0.19-1.95-0.82-4.07-3.34-9.1-1.41-2.84-3.17-6.36-5.28-11.11-2.57-4.18-7.3-16.71 1.91-45 3.55-10.89 6.55-21.62 9.45-32 3.71-13.28 7.55-27 12.49-40.88 4.94-13.88 16.16-39 24.29-52.88 0.31-0.52 0.61-1 0.92-1.52a70.89 70.89 0 0 1 5.43-7.6l3.8 6.41c-1.13 1.5-2.24 3.11-3.3 4.82-0.28 0.46-0.56 0.92-0.83 1.39-7.94 13.52-18.87 38.09-23.74 51.66-4.87 13.57-8.49 26.64-12.34 40.41-2.92 10.45-5.94 21.25-9.53 32.28-8.85 27.22-3.69 37.5-2.57 39.29 0.18 0.28 0.27 0.48 0.31 0.55 2.08 4.71 3.83 8.21 5.24 11 5.7 11.43 5.93 12.65-2.45 27.51q-1.14 2-2.5 4.45c-29.57 53.06-20.34 69.69-13.6 81.83 3.53 6.38 6.88 12.4 2.6 21.05-0.5 1.36-2.77 9.47-3.07 10.95-0.56 10.9 1.85 18.94 7.6 25.29l1.26 1.39-0.47 1.83c-1.86 7.12-2.42 12.23 0.22 17.32a64.54 64.54 0 0 1 7.17 28.95v6.07c-0.23 13.16-0.53 29.53 15.65 43.66 5.28 4.62 12.39 7.22 19.29 9.34a48.41 48.41 0 0 0 7.47 1.35l0.46 0.05 0.43 0.17c0.59 0.23 1.29 0.46 2.08 0.68l4.74 0.06c-4.74-2.18-9.28-4.93-12.18-8.58-12.83-16.14-17.29-37.56-20-50.36-0.54-2.64-1-4.91-1.46-6.6-6.39-24.67-8.31-73.4-8.52-79.21-14.62-45.09 0.75-81.43 9.94-103.18 3.22-7.62 6-14.2 6.18-18.12 0.39-8.71-1.79-16.69-3.89-24.4-2.21-8.07-4.28-15.7-2.76-22.78 1.22-5.59 2.54-12.1 3.93-19 4.85-23.93 10.89-53.71 18-72 3.81-9.82 11.94-29.81 19.06-44.8l4.31 7.29c-6.49 14.12-13.43 31.22-16.85 40-6.88 17.78-12.88 47.26-17.65 70.9-1.4 6.92-2.72 13.46-4 19.08-1.16 5.42 0.61 11.93 2.67 19.47 2.14 7.85 4.57 16.75 4.13 26.55-0.23 5.17-3.1 11.95-6.72 20.53-9.42 22.27-23.65 55.94-9.58 98.75l0.15 0.48v0.5c0 0.53 1.85 53.23 8.32 78.18 0.48 1.86 1 4.21 1.54 6.93 2.54 12.2 6.79 32.61 18.58 47.44 3.46 4.36 11.4 7.52 17.49 9.73l-7.06 12c-3.47-0.57-6.73-1.2-9.39-1.9-15.21-0.17-33.43-0.42-35.15-0.64a47.56 47.56 0 0 1-25.53-10.89c-14.56-12.32-19.27-29.95-14-52.39 2.68-11.42 1.11-19.35-5.44-27.36s-3.12-16.24 0.61-22.37c-14.22-9.62-12.07-23.29-8.45-34.35 2.91-8.85 1.95-9.56-6.4-12.44a67.24 67.24 0 0 1-18.28-9.56c-9.87-7.44-12.26-20.2-5.72-31z"/>
  <path id="path1130" class="cls-1" d="m591.24 446.98-7 11.89c-0.31-39.15 2.91-71.91 9.68-96.36 1.81-6.55 1.8-13.76 1.31-21.38l7.2 12.12a52.68 52.68 0 0 1-1.73 11.12c-5.96 21.39-9.09 49.38-9.46 82.61z"/>
  <path id="path1132" class="cls-1" d="m617.19 402.82c0-7.19-0.06-15.5-0.08-24.66l7 11.9v0.94z"/>
 </g>
</svg>
