<svg width="22" height="22" viewBox="0 0 22 22" fill="none" xmlns="http://www.w3.org/2000/svg">
<path d="M5.55 21H9.45C12.7 21 14 19.5 14 15.75V11.25C14 7.5 12.7 6 9.45 6H5.55C2.3 6 1 7.5 1 11.25V15.75C1 19.5 2.3 21 5.55 21Z" stroke="#4374A3" stroke-width="2" stroke-linecap="round" stroke-linejoin="round"/>
<path d="M12.55 16H16.45C19.7 16 21 14.5 21 10.75V6.25C21 2.5 19.7 1 16.45 1H12.55C9.3 1 8 2.5 8 6.25V10.75C8 14.5 9.3 16 12.55 16Z" fill="#F4F7F8" stroke="#4374A3" stroke-width="2" stroke-linecap="round" stroke-linejoin="round"/>
</svg>
