<?xml version="1.0" ?>
<!-- Uploaded to: SVG Repo, www.svgrepo.com, Generator: SVG Repo Mixer Tools -->
<svg width="800px" height="800px" viewBox="0 0 64 64" xmlns="http://www.w3.org/2000/svg">
<defs>
<style>.cls-1{fill:#bd7f00;}.cls-2{fill:#ffab00;}.cls-3{fill:#2d2d2d;}.cls-4{fill:#646467;}.cls-5{fill:#3e2c27;}</style>
</defs>
<title/>
<g id="Cat">
<path class="cls-1" d="M24.31,12.46A21,21,0,0,0,11,32V7A18.88,18.88,0,0,1,24.31,12.46Z"/>
<path class="cls-1" d="M53,7V32A21,21,0,0,0,39.69,12.46,18.88,18.88,0,0,1,53,7Z"/>
<path class="cls-2" d="M53,32v9A16,16,0,0,1,37,57H27A16,16,0,0,1,11,41V32A21,21,0,0,1,24.31,12.46L25,12.2a18.43,18.43,0,0,1,1.92-.58A21.13,21.13,0,0,1,31,11l1,0,1,0a21.13,21.13,0,0,1,4.08.6A18.43,18.43,0,0,1,39,12.2l.69.26A21,21,0,0,1,53,32Z"/>
<circle class="cls-3" cx="22.5" cy="30.5" r="1.5"/>
<circle class="cls-3" cx="41.5" cy="30.5" r="1.5"/>
<path class="cls-4" d="M43,40a1,1,0,0,1-.29-2l13-4A1,1,0,1,1,56.29,36l-13,4A.92.92,0,0,1,43,40Z"/>
<path class="cls-4" d="M21,40a.84.84,0,0,1-.27,0l-14-4A1,1,0,1,1,7.27,34l14,4A1,1,0,0,1,21,40Z"/>
<path class="cls-4" d="M56,50a.92.92,0,0,1-.29,0l-13-4A1,1,0,0,1,43.29,44l13,4A1,1,0,0,1,56,50Z"/>
<path class="cls-4" d="M7,50a1,1,0,0,1-.27-2l14-4A1,1,0,0,1,21.27,46l-14,4A.84.84,0,0,1,7,50Z"/>
<path class="cls-4" d="M21,43H7a1,1,0,0,1,0-2H21a1,1,0,0,1,0,2Z"/>
<path class="cls-4" d="M57,43H43a1,1,0,0,1,0-2H57a1,1,0,0,1,0,2Z"/>
<path class="cls-1" d="M32,48a1,1,0,0,1-1-1V42a1,1,0,0,1,2,0v5A1,1,0,0,1,32,48Z"/>
<path class="cls-1" d="M28.5,52A4.51,4.51,0,0,1,24,47.5a1,1,0,0,1,2,0,2.5,2.5,0,0,0,5,0,1,1,0,0,1,2,0A4.51,4.51,0,0,1,28.5,52Z"/>
<path class="cls-1" d="M35.5,52A4.51,4.51,0,0,1,31,47.5a1,1,0,0,1,2,0,2.5,2.5,0,0,0,5,0,1,1,0,0,1,2,0A4.51,4.51,0,0,1,35.5,52Z"/>
<path class="cls-1" d="M27,12v9a1,1,0,0,1-2,0V12.2a18.43,18.43,0,0,1,1.92-.58A1,1,0,0,1,27,12Z"/>
<path class="cls-1" d="M33,11V25a1,1,0,0,1-2,0V11l1,0Z"/>
<path class="cls-1" d="M39,12.2V21a1,1,0,0,1-2,0V12a1,1,0,0,1,.08-.38A18.43,18.43,0,0,1,39,12.2Z"/>
<path class="cls-5" d="M32,43h0l-2.23-1.19A1.49,1.49,0,0,1,29,40.48h0A1.43,1.43,0,0,1,30.39,39h3.22A1.43,1.43,0,0,1,35,40.48h0a1.49,1.49,0,0,1-.77,1.33Z"/>
</g>
</svg>