<?xml version="1.0" ?>
<!-- Uploaded to: SVG Repo, www.svgrepo.com, Generator: SVG Repo Mixer Tools -->
<svg width="800px" height="800px" viewBox="0 0 64 64" xmlns="http://www.w3.org/2000/svg">
<defs>
<style>.cls-1{fill:#edcad4;}.cls-2{fill:#9d5b6e;}.cls-3{fill:#aeadb3;}.cls-4{fill:#3e2c27;}.cls-5{fill:#eaeaea;}.cls-6{fill:#2d2d2d;}</style>
</defs>
<title/>
<g id="cow">
<path class="cls-1" d="M51,47.5v2A7.5,7.5,0,0,1,43.5,57h-23A7.5,7.5,0,0,1,13,49.5v-2A7.52,7.52,0,0,1,20.5,40h23A7.52,7.52,0,0,1,51,47.5Z"/>
<circle class="cls-2" cx="23.5" cy="48.5" r="2.5"/>
<circle class="cls-2" cx="40.5" cy="48.5" r="2.5"/>
<path class="cls-3" d="M21.5,16l-.18,1.07a14,14,0,0,0-5.18,9.47A10.84,10.84,0,0,1,13,27H7A11,11,0,0,1,18,16Z"/>
<path class="cls-3" d="M21.5,16l-.18,1.07a14,14,0,0,0-5.18,9.47A10.84,10.84,0,0,1,13,27H7A11,11,0,0,1,18,16Z"/>
<path class="cls-3" d="M57,27H51a10.84,10.84,0,0,1-3.14-.46,14,14,0,0,0-5.18-9.47L42.5,16H46A11,11,0,0,1,57,27Z"/>
<path class="cls-4" d="M28.19,14.13A13.9,13.9,0,0,0,22.86,16a13.64,13.64,0,0,0-1.54,1.07L21.5,16l1.17-7a2.36,2.36,0,0,1,4.66,0Z"/>
<path class="cls-5" d="M47.93,28V41.46A7.4,7.4,0,0,0,43.5,40h-23a7.4,7.4,0,0,0-4.43,1.46V28c0-.49,0-1,.07-1.46a14,14,0,0,1,5.18-9.47A13.64,13.64,0,0,1,22.86,16a13.9,13.9,0,0,1,5.33-1.87A12.9,12.9,0,0,1,30.07,14h3.86a12.9,12.9,0,0,1,1.88.13A13.9,13.9,0,0,1,41.14,16a13.64,13.64,0,0,1,1.54,1.07,14,14,0,0,1,5.18,9.47C47.9,27,47.93,27.51,47.93,28Z"/>
<circle class="cls-6" cx="25.5" cy="29.5" r="1.5"/>
<circle class="cls-6" cx="38.5" cy="29.5" r="1.5"/>
<path class="cls-4" d="M42.68,17.07A13.64,13.64,0,0,0,41.14,16a13.9,13.9,0,0,0-5.33-1.87L36.67,9a2.36,2.36,0,0,1,4.66,0l1.17,7Z"/>
</g>
</svg>