<?xml version="1.0" ?>
<!-- Uploaded to: SVG Repo, www.svgrepo.com, Generator: SVG Repo Mixer Tools -->
<svg width="800px" height="800px" viewBox="0 0 64 64" xmlns="http://www.w3.org/2000/svg">
<defs>
<style>.cls-1{fill:#3e2c27;}.cls-2{fill:#703f00;}.cls-3{fill:#965500;}.cls-4{fill:#2d2d2d;}</style>
</defs>
<title/>
<g id="deer">
<path class="cls-1" d="M24,21H16A13,13,0,0,1,3,8,2,2,0,0,1,7,8a9,9,0,0,0,9,9h8a2,2,0,0,1,0,4Z"/>
<path class="cls-1" d="M24,21H16A13,13,0,0,1,3,8,2,2,0,0,1,7,8a9,9,0,0,0,9,9h8a2,2,0,0,1,0,4Z"/>
<path class="cls-1" d="M24,21A13,13,0,0,1,11,8a2,2,0,0,1,4,0,9,9,0,0,0,9,9,2,2,0,0,1,0,4Z"/>
<path class="cls-1" d="M24,21A13,13,0,0,1,11,8a2,2,0,0,1,4,0,9,9,0,0,0,9,9,2,2,0,0,1,0,4Z"/>
<path class="cls-1" d="M27,24a2,2,0,0,1-2-2,1,1,0,0,0-1-1,2,2,0,0,1,0-4,5,5,0,0,1,5,5A2,2,0,0,1,27,24Z"/>
<path class="cls-1" d="M48,21H40a2,2,0,0,1,0-4h8a9,9,0,0,0,9-9,2,2,0,0,1,4,0A13,13,0,0,1,48,21Z"/>
<path class="cls-1" d="M48,21H40a2,2,0,0,1,0-4h8a9,9,0,0,0,9-9,2,2,0,0,1,4,0A13,13,0,0,1,48,21Z"/>
<path class="cls-1" d="M40,21a2,2,0,0,1,0-4,9,9,0,0,0,9-9,2,2,0,0,1,4,0A13,13,0,0,1,40,21Z"/>
<path class="cls-1" d="M40,21a2,2,0,0,1,0-4,9,9,0,0,0,9-9,2,2,0,0,1,4,0A13,13,0,0,1,40,21Z"/>
<path class="cls-1" d="M37,24a2,2,0,0,1-2-2,5,5,0,0,1,5-5,2,2,0,0,1,0,4,1,1,0,0,0-1,1A2,2,0,0,1,37,24Z"/>
<path class="cls-2" d="M57,22A10,10,0,0,1,47,32H46V29a7,7,0,0,0-1.2-3.93l.13-.14A10,10,0,0,1,52,22Z"/>
<path class="cls-3" d="M46,29v8.1a7,7,0,0,1-2,4.95h0a14.53,14.53,0,0,0-3.89,7l-1.17,5.06A5,5,0,0,1,34,58H30a5,5,0,0,1-4.87-3.88l-1.17-5.06a14.53,14.53,0,0,0-3.89-7h0A7,7,0,0,1,18,37.1V29a7,7,0,0,1,7-7H39a7,7,0,0,1,7,7Z"/>
<circle class="cls-4" cx="38.5" cy="36.5" r="1.5"/>
<circle class="cls-4" cx="25.5" cy="36.5" r="1.5"/>
<path class="cls-1" d="M35,55.49a1.55,1.55,0,0,1-.11.56,1.49,1.49,0,0,1-.66.76L32,58l-2.23-1.19a1.49,1.49,0,0,1-.66-.76,1.55,1.55,0,0,1-.11-.56A1.44,1.44,0,0,1,30.39,54h3.22A1.44,1.44,0,0,1,35,55.49Z"/>
<path class="cls-2" d="M19.2,25.07A7,7,0,0,0,18,29v3H17A10,10,0,0,1,7,22h5a10,10,0,0,1,7.07,2.93Z"/>
</g>
</svg>