<?xml version="1.0" ?>
<!-- Uploaded to: SVG Repo, www.svgrepo.com, Generator: SVG Repo Mixer Tools -->
<svg width="800px" height="800px" viewBox="0 0 64 64" xmlns="http://www.w3.org/2000/svg">
<defs>
<style>.cls-1{fill:#eaeaea;}.cls-2{fill:#bd7f00;}.cls-3{fill:#2d2d2d;}</style>
</defs>
<title/>
<g id="bird">
<path class="cls-1" d="M56.92,48.75l-1.57-5.1A53.24,53.24,0,0,1,53,28h0c0-.72,0-1.44-.11-2.15a20.7,20.7,0,0,0-1-4.61A21.37,21.37,0,0,0,50.47,18a21,21,0,0,0-6.73-7.4c-.56-.38-1.13-.73-1.73-1.06a21.08,21.08,0,0,0-20,0c-.6.33-1.17.68-1.73,1.06a20.66,20.66,0,0,0-3.11,2.56,20.93,20.93,0,0,0-4.5,6.68,20.51,20.51,0,0,0-1.54,6C11,26.56,11,27.28,11,28h0A53.24,53.24,0,0,1,8.65,43.65l-1.57,5.1a1.81,1.81,0,0,0-.08.51H7A1.74,1.74,0,0,0,8.74,51H11a6,6,0,0,0,5.65-4A5.8,5.8,0,0,0,17,45v6a3,3,0,0,0,2.92,3A7,7,0,0,0,27,47v4.78A5.16,5.16,0,0,0,31.51,57,5,5,0,0,0,37,52V47a7,7,0,0,0,7.08,7A3,3,0,0,0,47,51V45a5.8,5.8,0,0,0,.35,2A6,6,0,0,0,53,51h2.26A1.74,1.74,0,0,0,57,49.26h0A1.81,1.81,0,0,0,56.92,48.75Z"/>
<path class="cls-2" d="M35,27.46h1.95a1,1,0,0,1,1,1v11a0,0,0,0,1,0,0H27a1,1,0,0,1-1-1v-2A9,9,0,0,1,35,27.46Z" transform="translate(33.04 -12.81) rotate(45)"/>
<circle class="cls-3" cx="43.5" cy="24.5" r="1.5"/>
<circle class="cls-3" cx="20.5" cy="24.5" r="1.5"/>
</g>
</svg>