<?xml version="1.0" ?>
<!-- Uploaded to: SVG Repo, www.svgrepo.com, Generator: SVG Repo Mixer Tools -->
<svg width="800px" height="800px" viewBox="0 0 64 64" xmlns="http://www.w3.org/2000/svg">
<defs>
<style>.cls-1{fill:#2d2d2d;}.cls-2{fill:#87868a;}.cls-3{fill:#646467;}.cls-4{fill:#d8d9dd;}</style>
</defs>
<title/>
<g id="goat">
<circle class="cls-1" cx="27.5" cy="38.5" r="1.5"/>
</g>
<g id="elepant">
<path class="cls-2" d="M49,22v7a20,20,0,0,1-.73,5.35l-.15.53-2.69,8.72A2,2,0,0,1,43.52,45H43V43.5a2.5,2.5,0,0,0-5,0V47A12,12,0,0,1,26,59H23a6,6,0,0,1-6-6h3a3,3,0,0,0,6,0V43.5a2.5,2.5,0,1,0-5,0V45h-.52a2,2,0,0,1-1.91-1.41l-2.69-8.72-.15-.53A20,20,0,0,1,15,29V22a17,17,0,0,1,34,0Z"/>
<circle class="cls-1" cx="42.5" cy="29.38" r="1.5"/>
<circle class="cls-1" cx="21.5" cy="29.38" r="1.5"/>
<path class="cls-3" d="M61,13v7a6.13,6.13,0,0,1-.23,1.64l-2.53,9A6,6,0,0,1,52.46,35H51a6,6,0,0,1-2.73-.66A20,20,0,0,0,49,29V22a16.91,16.91,0,0,0-3.76-10.66A6,6,0,0,1,51,7h4A6,6,0,0,1,61,13Z"/>
<path class="cls-3" d="M15,29a20,20,0,0,0,.73,5.35A6,6,0,0,1,13,35H11.54a6,6,0,0,1-5.78-4.37L3.23,21.68A6.13,6.13,0,0,1,3,20V13A6,6,0,0,1,9,7h4a6,6,0,0,1,5.76,4.34A16.91,16.91,0,0,0,15,22Z"/>
<path class="cls-4" d="M43,43.5V51a5,5,0,0,1-5-5V43.5a2.5,2.5,0,1,1,5,0Z"/>
<path class="cls-4" d="M26,43.5V46a5,5,0,0,1-5,5V43.5a2.5,2.5,0,0,1,5,0Z"/>
</g>
</svg>