<?xml version="1.0" ?>
<!-- Uploaded to: SVG Repo, www.svgrepo.com, Generator: SVG Repo Mixer Tools -->
<svg width="800px" height="800px" viewBox="0 0 64 64" xmlns="http://www.w3.org/2000/svg">
<defs>
<style>.cls-1{fill:#ffab00;}.cls-2{fill:#efc589;}.cls-3{fill:#3e2c27;}.cls-4{fill:#bd7f00;}.cls-5{fill:#2d2d2d;}</style>
</defs>
<title/>
<g id="giraffe">
<path class="cls-1" d="M47,27v5L41,51v4a6,6,0,0,1-6,6H29a6,6,0,0,1-6-6V51L17,32V27c0-.26,0-.52,0-.78A13.86,13.86,0,0,1,18.88,20a14.15,14.15,0,0,1,2.86-3.49,3,3,0,0,0,.25-.25A3.94,3.94,0,0,0,22.65,12L21.32,9c-.11,0-.21,0-.32,0a3,3,0,1,1,.42-6A3,3,0,0,1,23.9,5.26,2.94,2.94,0,0,1,24,6.43a4,4,0,0,0,.23,2.26l1.23,2.78a3,3,0,0,0,3.22,1.73A13.29,13.29,0,0,1,30.21,13h3.58a13.29,13.29,0,0,1,1.56.17,3,3,0,0,0,3.22-1.73l1.19-2.69A4.36,4.36,0,0,0,40,6.38,2.34,2.34,0,0,1,40,6a3,3,0,1,1,3,3c-.11,0-.21,0-.32,0l-1.33,3A3.94,3.94,0,0,0,42,16.26l.25.25A14.15,14.15,0,0,1,45.12,20,13.86,13.86,0,0,1,47,26.22C47,26.48,47,26.74,47,27Z"/>
<rect class="cls-2" height="14" rx="6" ry="6" width="18" x="23" y="47"/>
<path class="cls-3" d="M29,56a1,1,0,0,1-1-1V53a1,1,0,0,1,2,0v2A1,1,0,0,1,29,56Z"/>
<path class="cls-3" d="M35,56a1,1,0,0,1-1-1V53a1,1,0,0,1,2,0v2A1,1,0,0,1,35,56Z"/>
<path class="cls-4" d="M57,29H55a12.91,12.91,0,0,1-8-2.78A13.86,13.86,0,0,0,45.12,20a14.15,14.15,0,0,0-2.86-3.49L42,16.26A2.26,2.26,0,0,1,42,16h2A13,13,0,0,1,57,29Z"/>
<path class="cls-4" d="M22,16a2.26,2.26,0,0,1,0,.26,3,3,0,0,1-.25.25A14.15,14.15,0,0,0,18.88,20,13.86,13.86,0,0,0,17,26.22,12.91,12.91,0,0,1,9,29H7A13,13,0,0,1,20,16Z"/>
<circle class="cls-5" cx="38.5" cy="32.5" r="1.5"/>
<circle class="cls-5" cx="25.5" cy="32.5" r="1.5"/>
</g>
</svg>