<?xml version="1.0" ?>
<!-- Uploaded to: SVG Repo, www.svgrepo.com, Generator: SVG Repo Mixer Tools -->
<svg width="800px" height="800px" viewBox="0 0 64 64" xmlns="http://www.w3.org/2000/svg">
<defs>
<style>.cls-1{fill:#aeadb3;}.cls-2{fill:#d8d9dd;}.cls-3{fill:#464548;}.cls-4{fill:#3e2c27;}.cls-5{fill:#2d2d2d;}</style>
</defs>
<title/>
<g id="goat">
<path class="cls-1" d="M37.52,52.66a14,14,0,0,1-3.64,4.77L32,59l-1.88-1.57a14,14,0,0,1-3.65-4.77,8,8,0,0,0,2.3.34h6.46A7.93,7.93,0,0,0,37.52,52.66Z"/>
<path class="cls-2" d="M46,30v6.38a10,10,0,0,1-.51,3.16l-2.65,7.93,0,.06A8,8,0,0,1,35.23,53H28.77a8,8,0,0,1-7.59-5.47l0-.06-2.65-7.93A10,10,0,0,1,18,36.38V30a10,10,0,0,1,3-7.14c.2-.19.4-.38.62-.56h0A9.86,9.86,0,0,1,27,20.05c.33,0,.66-.05,1-.05h8c.34,0,.67,0,1,.05a8.83,8.83,0,0,1,1,.16q.31.06.63.15l.12,0a6.17,6.17,0,0,1,.61.19l.25.1a3.74,3.74,0,0,1,.51.22,8.17,8.17,0,0,1,.93.48,3.87,3.87,0,0,1,.43.27,7.67,7.67,0,0,1,.86.64h0c.22.18.42.37.62.56A10,10,0,0,1,46,30Z"/>
<path class="cls-3" d="M53,5.93a.94.94,0,0,1-.53.83A17,17,0,0,0,43.12,20,16.4,16.4,0,0,0,43,22v.86c-.2-.19-.4-.38-.62-.56h0a7.67,7.67,0,0,0-.86-.64,3.87,3.87,0,0,0-.43-.27,8.17,8.17,0,0,0-.93-.48,3.74,3.74,0,0,0-.51-.22l-.25-.1a6.17,6.17,0,0,0-.61-.19l-.12,0q-.31-.09-.63-.15a8.83,8.83,0,0,0-1-.16c-.33,0-.66-.05-1-.05h-.88A17,17,0,0,1,52,5h.07A.93.93,0,0,1,53,5.93Z"/>
<path class="cls-3" d="M28.88,20H28c-.34,0-.67,0-1,.05a9.86,9.86,0,0,0-5.37,2.25h0c-.22.18-.42.37-.62.56V22a16.4,16.4,0,0,0-.12-2A17,17,0,0,0,11.53,6.76.92.92,0,0,1,11.93,5H12A17,17,0,0,1,28.88,20Z"/>
<path class="cls-1" d="M32,54a1,1,0,0,1-1-1V48a1,1,0,0,1,2,0v5A1,1,0,0,1,32,54Z"/>
<path class="cls-1" d="M21,22.07v.79A10,10,0,0,0,18,30v6.33a8,8,0,0,1-10.86-.41Z"/>
<path class="cls-1" d="M56.86,35.92A8,8,0,0,1,46,36.33V30a10,10,0,0,0-3-7.14v-.79Z"/>
<path class="cls-4" d="M35,45.49a1.55,1.55,0,0,1-.11.56,1.49,1.49,0,0,1-.66.76L32,48l-2.23-1.19a1.49,1.49,0,0,1-.66-.76,1.55,1.55,0,0,1-.11-.56A1.44,1.44,0,0,1,30.39,44h3.22A1.44,1.44,0,0,1,35,45.49Z"/>
<circle class="cls-5" cx="38.5" cy="35.5" r="1.5"/>
<circle class="cls-5" cx="25.5" cy="35.5" r="1.5"/>
</g>
</svg>