<?xml version="1.0" ?>
<!-- Uploaded to: SVG Repo, www.svgrepo.com, Generator: SVG Repo Mixer Tools -->
<svg width="800px" height="800px" viewBox="0 0 64 64" xmlns="http://www.w3.org/2000/svg">
<defs>
<style>.cls-1{fill:#646467;}.cls-2{fill:#87868a;}.cls-3{fill:#2d2d2d;}.cls-4{fill:#434347;}</style>
</defs>
<title/>
<g id="koala">
<path class="cls-1" d="M28.69,17.3a17.44,17.44,0,0,0-3.42.92l-.27.1a20,20,0,0,0-6,3.6,22.16,22.16,0,0,0-5,6.19,23.93,23.93,0,0,0-2.9,9.58A14,14,0,1,1,28.69,17.3Z"/>
<path class="cls-2" d="M53,39.91c0,.35,0,.69,0,1a13.6,13.6,0,0,1-3.47,8.23A11.47,11.47,0,0,1,41,53H23c-6.31,0-11.48-5.31-12-12.06,0-.34,0-.68,0-1,0-.75,0-1.49.1-2.22A23.93,23.93,0,0,1,14,28.11a22.16,22.16,0,0,1,5-6.19,20,20,0,0,1,6-3.6l.27-.1a17.44,17.44,0,0,1,3.42-.92c.43-.08.87-.14,1.31-.19a18.24,18.24,0,0,1,4,0c.44.05.88.11,1.31.19a17.44,17.44,0,0,1,3.42.92l.27.1a20,20,0,0,1,6,3.6,22.16,22.16,0,0,1,5,6.19,23.93,23.93,0,0,1,2.9,9.58C53,38.42,53,39.16,53,39.91Z"/>
<circle class="cls-3" cx="42.5" cy="35.5" r="1.5"/>
<circle class="cls-3" cx="21.5" cy="35.5" r="1.5"/>
<path class="cls-1" d="M61,25a14,14,0,0,1-8.1,12.69A23.93,23.93,0,0,0,50,28.11a22.16,22.16,0,0,0-5-6.19,20,20,0,0,0-6-3.6l-.27-.1a17.44,17.44,0,0,0-3.42-.92A14,14,0,0,1,61,25Z"/>
<path class="cls-1" d="M33,48v5H31V48a1,1,0,0,1,2,0Z"/>
<rect class="cls-4" height="13" rx="5" ry="5" width="10" x="27" y="36"/>
</g>
</svg>