<?xml version="1.0" ?>
<!-- Uploaded to: SVG Repo, www.svgrepo.com, Generator: SVG Repo Mixer Tools -->
<svg width="800px" height="800px" viewBox="0 0 64 64" xmlns="http://www.w3.org/2000/svg">
<defs>
<style>.cls-1{fill:#bd7f00;}.cls-2{fill:#efc589;}.cls-3{fill:#2d2d2d;}.cls-4{fill:#3e2c27;}</style>
</defs>
<title/>
<g id="Lion">
<path class="cls-1" d="M57,35.39a13,13,0,0,1-6.64,11.33L32,57,13.64,46.72A13,13,0,0,1,8.66,29L13.19,21l2.44-4.35a18.75,18.75,0,0,1,25.86-7,18.36,18.36,0,0,1,2.16,1.48,18.72,18.72,0,0,1,4.72,5.54L50.81,21,55.34,29A13,13,0,0,1,57,35.39Z"/>
<path class="cls-2" d="M57,14a7,7,0,0,1-6.19,7L48.37,16.6a18.72,18.72,0,0,0-4.72-5.54A7,7,0,0,1,57,14Z"/>
<path class="cls-2" d="M20.35,11.06a18.72,18.72,0,0,0-4.72,5.54L13.19,21a7,7,0,1,1,7.16-9.89Z"/>
<path class="cls-2" d="M44.57,34.14h0L38.74,45A7.66,7.66,0,0,1,32,49h0a7.66,7.66,0,0,1-6.74-4L19.43,34.14h0a4.12,4.12,0,0,1-3.91-5.42l2.61-7.82a4,4,0,0,1,5.16-2.5L32,21.57l8.71-3.17a4,4,0,0,1,5.16,2.5l2.61,7.82A4.12,4.12,0,0,1,44.57,34.14Z"/>
<circle class="cls-3" cx="25.5" cy="26.5" r="1.5"/>
<circle class="cls-3" cx="38.5" cy="26.5" r="1.5"/>
<path class="cls-4" d="M32,42a1,1,0,0,1-1-1V36a1,1,0,0,1,2,0v5A1,1,0,0,1,32,42Z"/>
<path class="cls-4" d="M29,44a1,1,0,0,1-.55-1.83l3-2a1,1,0,0,1,1.1,1.66l-3,2A.94.94,0,0,1,29,44Z"/>
<path class="cls-4" d="M35,44a.94.94,0,0,1-.55-.17l-3-2a1,1,0,0,1,1.1-1.66l3,2A1,1,0,0,1,35,44Z"/>
<path class="cls-4" d="M32,37.38h0l-2.23-1.12A1.4,1.4,0,0,1,29,35h0a1.39,1.39,0,0,1,1.39-1.39h3.22A1.39,1.39,0,0,1,35,35h0a1.4,1.4,0,0,1-.77,1.24Z"/>
</g>
</svg>