<?xml version="1.0" ?>
<!-- Uploaded to: SVG Repo, www.svgrepo.com, Generator: SVG Repo Mixer Tools -->
<svg width="800px" height="800px" viewBox="0 0 64 64" xmlns="http://www.w3.org/2000/svg">
<defs>
<style>.cls-1{fill:#965500;}.cls-2{fill:#efc589;}.cls-3{fill:#703f00;}.cls-4{fill:#3e2c27;}.cls-5{fill:#2d2d2d;}</style>
</defs>
<title/>
<g id="monkey">
<path class="cls-1" d="M48,16.8A17.83,17.83,0,0,1,50,25V37.3a17.61,17.61,0,0,0-5-3.5V22a7,7,0,0,0-13-3.6A6.89,6.89,0,0,0,31,17.05,7,7,0,0,0,19,22V33.8a17.61,17.61,0,0,0-5,3.5V25a18,18,0,0,1,34-8.2Z"/>
<path class="cls-2" d="M53,44c0,7.18-9.4,13-21,13S11,51.18,11,44c0-.22,0-.45,0-.67a3.93,3.93,0,0,1,.06-.48.64.64,0,0,1,0-.2,3,3,0,0,1,.1-.5c0-.13.06-.26.1-.39a5.44,5.44,0,0,1,.29-.86A11.25,11.25,0,0,1,14,37.33v0a17.61,17.61,0,0,1,5-3.5V22a7,7,0,0,1,12-4.95A6.89,6.89,0,0,1,32,18.4,7,7,0,0,1,45,22V33.8a17.61,17.61,0,0,1,5,3.5v0a11.25,11.25,0,0,1,2.39,3.57,5.44,5.44,0,0,1,.29.86c0,.13.07.26.11.39a4.37,4.37,0,0,1,.09.5.64.64,0,0,1,0,.2,3.93,3.93,0,0,1,.06.48C53,43.55,53,43.78,53,44Z"/>
<path class="cls-3" d="M16,16.8A17.83,17.83,0,0,0,14,25v2.91A5.47,5.47,0,0,1,13,28a6,6,0,0,1,0-12A5.88,5.88,0,0,1,16,16.8Z"/>
<path class="cls-3" d="M57,22a6,6,0,0,1-6,6,5.47,5.47,0,0,1-1-.09V25a17.83,17.83,0,0,0-2-8.2,5.88,5.88,0,0,1,3-.8A6,6,0,0,1,57,22Z"/>
<path class="cls-4" d="M37,48H27a1,1,0,0,1,0-2H37a1,1,0,0,1,0,2Z"/>
<circle class="cls-5" cx="26.5" cy="26.5" r="1.5"/>
<circle class="cls-5" cx="37.5" cy="26.5" r="1.5"/>
<path class="cls-4" d="M30,38H29a1,1,0,0,1,0-2h1a1,1,0,0,1,0,2Z"/>
<path class="cls-4" d="M35,38H34a1,1,0,0,1,0-2h1a1,1,0,0,1,0,2Z"/>
</g>
</svg>