<?xml version="1.0" ?>
<!-- Uploaded to: SVG Repo, www.svgrepo.com, Generator: SVG Repo Mixer Tools -->
<svg width="800px" height="800px" viewBox="0 0 64 64" xmlns="http://www.w3.org/2000/svg">
<defs>
<style>.cls-1{fill:#d8d9dd;}.cls-2{fill:#434347;}.cls-3{fill:#2d2d2d;}.cls-4{fill:#3e2c27;}</style>
</defs>
<title/>
<g id="panda">
<path class="cls-1" d="M57,38.33C57,50.76,45.81,57,32,57S7,50.76,7,38.33a27,27,0,0,1,5.81-16,27,27,0,0,1,11.07-8.71,21,21,0,0,1,16.24,0,27,27,0,0,1,11.07,8.71A27,27,0,0,1,57,38.33Z"/>
<path class="cls-2" d="M23.88,13.63a27,27,0,0,0-11.07,8.71,8,8,0,1,1,11.07-8.71Z"/>
<path class="cls-2" d="M56,15a8,8,0,0,1-4.81,7.34,27,27,0,0,0-11.07-8.71A8,8,0,0,1,56,15Z"/>
<path class="cls-2" d="M18.74,40a5.66,5.66,0,0,1-5.6-7c1-4.83,7.55-8,11.21-8C31.48,25,27.4,40,18.74,40Z"/>
<path class="cls-2" d="M45.26,40a5.66,5.66,0,0,0,5.6-7c-1-4.83-7.55-8-11.21-8C32.52,25,36.6,40,45.26,40Z"/>
<circle class="cls-3" cx="23.5" cy="30.5" r="1.5"/>
<circle class="cls-3" cx="40.5" cy="30.5" r="1.5"/>
<path class="cls-2" d="M32,50a1,1,0,0,1-1-1V43a1,1,0,0,1,2,0v6A1,1,0,0,1,32,50Z"/>
<path class="cls-2" d="M37,50H27a1,1,0,0,1,0-2H37a1,1,0,0,1,0,2Z"/>
<path class="cls-4" d="M32,43.38h0l-2.23-1.12A1.4,1.4,0,0,1,29,41h0a1.39,1.39,0,0,1,1.39-1.39h3.22A1.39,1.39,0,0,1,35,41h0a1.4,1.4,0,0,1-.77,1.24Z"/>
</g>
</svg>