<?xml version="1.0" ?>
<!-- Uploaded to: SVG Repo, www.svgrepo.com, Generator: SVG Repo Mixer Tools -->
<svg width="800px" height="800px" viewBox="0 0 64 64" xmlns="http://www.w3.org/2000/svg">
<defs>
<style>.cls-1{fill:#dbd9d9;}.cls-2{fill:#aeaeaf;}.cls-3{fill:#d37b93;}.cls-4{fill:#eaeaea;}.cls-5{fill:#2d2d2d;}</style>
</defs>
<title/>
<g id="rabbit">
<path class="cls-1" d="M30,13V26.1A21,21,0,0,0,14,36.18V13a8,8,0,1,1,16,0Z"/>
<path class="cls-2" d="M50,13V36.18A21,21,0,0,0,34,26.1V13a8,8,0,1,1,16,0Z"/>
<path class="cls-1" d="M50,13V36.18A21,21,0,0,0,34,26.1V13a8,8,0,1,1,16,0Z"/>
<path class="cls-3" d="M25,13V27.21a20.41,20.41,0,0,0-6,3.3V13a3,3,0,0,1,6,0Z"/>
<path class="cls-4" d="M53,47A12,12,0,0,1,41,59H23A12,12,0,0,1,11,47a20.94,20.94,0,0,1,8-16.49,20.41,20.41,0,0,1,6-3.3,20.75,20.75,0,0,1,5-1.11,20,20,0,0,1,4,0,20.75,20.75,0,0,1,5,1.11,20.41,20.41,0,0,1,6,3.3A21,21,0,0,1,53,47Z"/>
<path class="cls-1" d="M28.5,57A4.51,4.51,0,0,1,24,52.5a1,1,0,0,1,2,0,2.5,2.5,0,0,0,5,0,1,1,0,0,1,2,0A4.51,4.51,0,0,1,28.5,57Z"/>
<path class="cls-1" d="M35.5,57A4.51,4.51,0,0,1,31,52.5a1,1,0,0,1,2,0,2.5,2.5,0,0,0,5,0,1,1,0,0,1,2,0A4.51,4.51,0,0,1,35.5,57Z"/>
<path class="cls-3" d="M45,13V30.51a20.41,20.41,0,0,0-6-3.3V13a3,3,0,0,1,6,0Z"/>
<rect class="cls-1" height="3" width="2" x="31" y="50"/>
<path class="cls-3" d="M32,52h0l-2.23-1.19A1.49,1.49,0,0,1,29,49.48h0A1.43,1.43,0,0,1,30.39,48h3.22A1.43,1.43,0,0,1,35,49.48h0a1.49,1.49,0,0,1-.77,1.33Z"/>
<circle class="cls-5" cx="40.5" cy="42.5" r="1.5"/>
<circle class="cls-5" cx="23.5" cy="42.5" r="1.5"/>
</g>
</svg>