<?xml version="1.0" ?>
<!-- Uploaded to: SVG Repo, www.svgrepo.com, Generator: SVG Repo Mixer Tools -->
<svg width="800px" height="800px" viewBox="0 0 64 64" xmlns="http://www.w3.org/2000/svg">
<defs>
<style>.cls-1{fill:#ffab00;}.cls-2{fill:#3e2c27;}.cls-3{fill:#bd7f00;}.cls-4{fill:#2d2d2d;}</style>
</defs>
<title/>
<g id="tiger">
<path class="cls-1" d="M57,47H55.56a16.47,16.47,0,0,0-13.47,7,7,7,0,0,1-5.73,3H27.64a7,7,0,0,1-3.23-.79,6.94,6.94,0,0,1-2.5-2.2A16.47,16.47,0,0,0,8.44,47H7l.44-4,.23-2L8,38l.22-2,.33-3,.13-1.13c0-.29.07-.58.11-.87A23.44,23.44,0,0,1,31,11c.66,0,1.33,0,2,0h.33A22.66,22.66,0,0,1,41,12.84a23.36,23.36,0,0,1,8.11,5.77A24.3,24.3,0,0,1,55.18,31c.08.46.15.92.2,1.39l.07.61.33,3L56,38l.33,3,.23,2Z"/>
<path class="cls-2" d="M32,48a1,1,0,0,1-1-1V41a1,1,0,0,1,2,0v6A1,1,0,0,1,32,48Z"/>
<path class="cls-2" d="M26,52a1,1,0,0,1-.55-1.83l6-4a1,1,0,0,1,1.1,1.66l-6,4A.94.94,0,0,1,26,52Z"/>
<path class="cls-2" d="M38,52a.94.94,0,0,1-.55-.17l-6-4a1,1,0,0,1,1.1-1.66l6,4A1,1,0,0,1,38,52Z"/>
<path class="cls-2" d="M32,42.38h0l-2.23-1.12A1.4,1.4,0,0,1,29,40h0a1.39,1.39,0,0,1,1.39-1.39h3.22A1.39,1.39,0,0,1,35,40h0a1.4,1.4,0,0,1-.77,1.24Z"/>
<path class="cls-3" d="M23,12.8a23.26,23.26,0,0,0-8.24,5.76A6,6,0,1,1,23,12.8Z"/>
<path class="cls-3" d="M53,13a6,6,0,0,1-3.88,5.61A23.36,23.36,0,0,0,41,12.84,6,6,0,0,1,53,13Z"/>
<path class="cls-3" d="M55.45,33H48a1,1,0,0,1,0-2h7.18c.08.46.15.92.2,1.39Z"/>
<path class="cls-3" d="M56,38H47a1,1,0,0,1,0-2h8.78Z"/>
<path class="cls-3" d="M56.56,43H46a1,1,0,0,1,0-2H56.33Z"/>
<path class="cls-3" d="M17,32a1,1,0,0,1-1,1H8.55l.13-1.13c0-.29.07-.58.11-.87H16A1,1,0,0,1,17,32Z"/>
<path class="cls-3" d="M18,37a1,1,0,0,1-1,1H8l.22-2H17A1,1,0,0,1,18,37Z"/>
<path class="cls-3" d="M19,42a1,1,0,0,1-1,1H7.44l.23-2H18A1,1,0,0,1,19,42Z"/>
<path class="cls-3" d="M37,17H27a1,1,0,0,1,0-2H37a1,1,0,0,1,0,2Z"/>
<path class="cls-3" d="M37,22H27a1,1,0,0,1,0-2H37a1,1,0,0,1,0,2Z"/>
<path class="cls-3" d="M33,11V21a1,1,0,0,1-2,0V11C31.66,11,32.33,11,33,11Z"/>
<circle class="cls-4" cx="22.5" cy="30.5" r="1.5"/>
<circle class="cls-4" cx="41.5" cy="30.5" r="1.5"/>
</g>
</svg>