<?xml version="1.0" ?>
<!-- Uploaded to: SVG Repo, www.svgrepo.com, Generator: SVG Repo Mixer Tools -->
<svg width="800px" height="800px" viewBox="0 0 64 64" xmlns="http://www.w3.org/2000/svg">
<defs>
<style>.cls-1{fill:#d8d9dd;}.cls-2{fill:#2d2d2d;}.cls-3{fill:#aeadb3;}.cls-4{fill:#3e2c27;}</style>
</defs>
<title/>
<g data-name="husky dog" id="husky_dog">
<path class="cls-1" d="M53,56,32,61,11,56l2.27-22.09A18.81,18.81,0,0,1,28.6,17.31a18.8,18.8,0,0,1,6.8,0,18.81,18.81,0,0,1,15.33,16.6Z"/>
<circle class="cls-2" cx="24.5" cy="33.5" r="1.5"/>
<circle class="cls-2" cx="39.5" cy="33.5" r="1.5"/>
<path class="cls-3" d="M28.6,17.31A18.83,18.83,0,0,0,15.07,27.58c-.05-1-.07-2-.07-3.08C15,12.63,18.13,3,22,3,25.05,3,27.64,9,28.6,17.31Z"/>
<path class="cls-3" d="M49,24.5c0,1,0,2.07-.07,3.08A18.81,18.81,0,0,0,35.4,17.31C36.36,9,39,3,42,3,45.87,3,49,12.63,49,24.5Z"/>
<path class="cls-3" d="M28,56h0A4.81,4.81,0,0,1,24,53.72l-2.81-4.49A2.62,2.62,0,0,0,19,48a1,1,0,0,1,0-2,4.58,4.58,0,0,1,3.91,2.17l2.81,4.49A2.82,2.82,0,0,0,28,54a1,1,0,0,1,0,2Z"/>
<path class="cls-3" d="M32,56a1,1,0,0,1-1-1V51a1,1,0,0,1,2,0v4A1,1,0,0,1,32,56Z"/>
<path class="cls-3" d="M36,56a1,1,0,0,1,0-2,2.82,2.82,0,0,0,2.31-1.33l2.81-4.49A4.58,4.58,0,0,1,45,46a1,1,0,0,1,0,2,2.62,2.62,0,0,0-2.21,1.23L40,53.72A4.81,4.81,0,0,1,36,56Z"/>
<path class="cls-3" d="M28.14,56H28a1,1,0,1,1,.14-2h0l.2,0a1,1,0,0,1,.83,1A1,1,0,0,1,28.14,56Z"/>
<path class="cls-3" d="M36,56h-.14a1,1,0,0,1,0-2,.93.93,0,0,1,.8.21A1,1,0,0,1,37,55h0A1,1,0,0,1,36,56Z"/>
<path class="cls-3" d="M36,56H28a1,1,0,0,1,0-2h8a1,1,0,0,1,0,2Z"/>
<path class="cls-4" d="M36,48.33c0,.64-.64,1.23-1.45,1.65a6,6,0,0,1-2.55.69c-1.47,0-4-1.05-4-2.34a2.13,2.13,0,0,1,.79-1.64A2.8,2.8,0,0,1,30.67,46h2.66A2.52,2.52,0,0,1,36,48.33Z"/>
</g>
</svg>